<svg width="601" height="616" viewBox="0 0 601 616" fill="none" xmlns="http://www.w3.org/2000/svg">
<g clip-path="url(#clip0_17_421)">
<path d="M331.146 158.271V244.681C331.142 247.024 330.21 249.27 328.553 250.927C326.896 252.584 324.65 253.517 322.307 253.521H256.026L256.636 252.741C291.506 229.461 316.217 198.401 330.367 159.261L331.146 158.271Z" fill="#F2F2F2"/>
<path d="M398.31 72.21H22.69C16.6745 72.2172 10.9074 74.6101 6.65375 78.8637C2.40012 83.1174 0.00725376 88.8844 0 94.9V320.52C0.00725376 326.535 2.40012 332.303 6.65375 336.556C10.9074 340.81 16.6745 343.203 22.69 343.21H398.31C404.326 343.203 410.093 340.81 414.346 336.556C418.6 332.303 420.993 326.535 421 320.52V94.9C420.993 88.8844 418.6 83.1173 414.346 78.8637C410.093 74.6101 404.326 72.2172 398.31 72.21ZM419 320.52C419.001 323.237 418.466 325.928 417.426 328.438C416.387 330.949 414.863 333.23 412.941 335.151C411.02 337.073 408.739 338.597 406.228 339.636C403.718 340.676 401.027 341.211 398.31 341.21H22.69C19.9728 341.211 17.2821 340.676 14.7716 339.636C12.2612 338.597 9.9801 337.073 8.05875 335.151C6.13739 333.23 4.6134 330.949 3.57382 328.438C2.53424 325.928 1.99946 323.237 2 320.52V229.89C2 224.61 2.25666 219.393 2.76999 214.24C6.6308 175.846 24.6204 140.256 53.2464 114.38C81.8723 88.5033 119.092 74.187 157.68 74.21H398.31C403.797 74.2106 409.059 76.3906 412.939 80.2706C416.819 84.1506 418.999 89.4128 419 94.9V320.52Z" fill="#E6E6E6"/>
<path d="M278.35 177.42H82.9801C81.3795 177.42 79.8445 178.056 78.7127 179.188C77.5809 180.32 76.9451 181.855 76.9451 183.455C76.9451 185.056 77.5809 186.591 78.7127 187.723C79.8445 188.855 81.3795 189.49 82.9801 189.49H278.35C279.951 189.49 281.486 188.855 282.617 187.723C283.749 186.591 284.385 185.056 284.385 183.455C284.385 181.855 283.749 180.32 282.617 179.188C281.486 178.056 279.951 177.42 278.35 177.42Z" fill="#E6E6E6"/>
<path d="M143.55 143.57H82.98C81.3781 143.57 79.8419 144.207 78.7091 145.339C77.5764 146.472 76.9401 148.008 76.9401 149.61C76.9401 151.212 77.5764 152.749 78.7091 153.881C79.8419 155.014 81.3781 155.65 82.98 155.65H143.55C145.152 155.65 146.688 155.014 147.821 153.881C148.954 152.749 149.59 151.212 149.59 149.61C149.59 148.008 148.954 146.472 147.821 145.339C146.688 144.207 145.152 143.57 143.55 143.57Z" fill="#E6E6E6"/>
<path d="M82.9801 177.42H112.93C109.15 181.751 105.045 185.786 100.65 189.49H82.9801C81.3795 189.49 79.8445 188.855 78.7127 187.723C77.5809 186.591 76.9451 185.056 76.9451 183.455C76.9451 181.855 77.5809 180.32 78.7127 179.188C79.8445 178.056 81.3795 177.42 82.9801 177.42Z" fill="#66BC46"/>
<path d="M82.9801 143.57H133.53C131.916 147.705 130.056 151.739 127.96 155.65H82.9801C81.3782 155.65 79.8419 155.014 78.7091 153.881C77.5764 152.749 76.9401 151.212 76.9401 149.61C76.9401 148.008 77.5764 146.472 78.7091 145.339C79.8419 144.207 81.3782 143.57 82.9801 143.57Z" fill="#66BC46"/>
<path d="M138.38 75.4005C103.4 79.78 70.9395 95.897 46.3066 121.117C21.6737 146.336 6.32504 179.167 2.76999 214.24C1.83999 214.06 0.92 213.85 0 213.63V94.9005C0.00725376 88.8849 2.40012 83.1178 6.65375 78.8642C10.9074 74.6106 16.6745 72.2177 22.69 72.2104H137.58C137.87 73.2604 138.13 74.3304 138.38 75.4005Z" fill="#66BC46"/>
<path d="M137.249 93.009C147.68 93.009 156.136 84.5529 156.136 74.1217C156.136 63.6905 147.68 55.2344 137.249 55.2344C126.818 55.2344 118.362 63.6905 118.362 74.1217C118.362 84.5529 126.818 93.009 137.249 93.009Z" fill="white"/>
<path d="M137.249 94.0088C133.316 94.0088 129.471 92.8424 126.2 90.6572C122.93 88.472 120.381 85.366 118.876 81.7321C117.371 78.0982 116.977 74.0995 117.744 70.2418C118.511 66.3841 120.406 62.8405 123.187 60.0592C125.968 57.2779 129.512 55.3839 133.369 54.6165C137.227 53.8492 141.226 54.243 144.86 55.7482C148.494 57.2534 151.6 59.8024 153.785 63.0729C155.97 66.3433 157.136 70.1883 157.136 74.1216C157.13 79.3942 155.033 84.4491 151.305 88.1774C147.577 91.9057 142.522 94.0028 137.249 94.0088ZM137.249 56.2344C133.711 56.2344 130.253 57.2835 127.312 59.2489C124.37 61.2144 122.077 64.008 120.724 67.2765C119.37 70.5449 119.015 74.1414 119.706 77.6112C120.396 81.081 122.099 84.2682 124.601 86.7698C127.103 89.2713 130.29 90.9749 133.76 91.6651C137.229 92.3553 140.826 92.0011 144.094 90.6472C147.363 89.2934 150.156 87.0007 152.122 84.0592C154.087 81.1177 155.136 77.6593 155.136 74.1216C155.131 69.3792 153.245 64.8326 149.892 61.4793C146.538 58.1259 141.992 56.2397 137.249 56.2344Z" fill="#3F3D56"/>
<path d="M134.673 83.9517C134.346 83.9517 134.025 83.8757 133.733 83.7298C133.441 83.584 133.188 83.3721 132.992 83.1112L127.839 76.2407C127.674 76.02 127.553 75.7688 127.485 75.5015C127.416 75.2343 127.401 74.9561 127.44 74.683C127.479 74.4099 127.572 74.1471 127.712 73.9098C127.853 73.6724 128.039 73.465 128.259 73.2994C128.48 73.1339 128.731 73.0135 128.999 72.945C129.266 72.8765 129.544 72.8614 129.817 72.9004C130.09 72.9394 130.353 73.0319 130.59 73.1724C130.828 73.313 131.035 73.499 131.201 73.7197L134.572 78.2142L143.23 65.227C143.54 64.7642 144.02 64.4432 144.566 64.3344C145.112 64.2257 145.679 64.338 146.142 64.6468C146.605 64.9556 146.927 65.4356 147.036 65.9814C147.146 66.5272 147.034 67.0942 146.726 67.5578L136.421 83.0161C136.234 83.2956 135.984 83.5264 135.69 83.6891C135.396 83.8518 135.067 83.9416 134.731 83.951L134.673 83.9517Z" fill="#66BC46"/>
<path d="M286.249 226.009C296.68 226.009 305.136 217.553 305.136 207.122C305.136 196.691 296.68 188.234 286.249 188.234C275.818 188.234 267.362 196.691 267.362 207.122C267.362 217.553 275.818 226.009 286.249 226.009Z" fill="white"/>
<path d="M286.249 227.009C282.316 227.009 278.471 225.842 275.2 223.657C271.93 221.472 269.381 218.366 267.876 214.732C266.371 211.098 265.977 207.1 266.744 203.242C267.511 199.384 269.405 195.84 272.187 193.059C274.968 190.278 278.512 188.384 282.369 187.617C286.227 186.849 290.226 187.243 293.86 188.748C297.494 190.253 300.6 192.802 302.785 196.073C304.97 199.343 306.136 203.188 306.136 207.122C306.13 212.394 304.033 217.449 300.305 221.177C296.577 224.906 291.522 227.003 286.249 227.009ZM286.249 189.234C282.711 189.234 279.253 190.283 276.312 192.249C273.37 194.214 271.077 197.008 269.724 200.276C268.37 203.545 268.015 207.141 268.706 210.611C269.396 214.081 271.099 217.268 273.601 219.77C276.103 222.271 279.29 223.975 282.76 224.665C286.229 225.355 289.826 225.001 293.094 223.647C296.363 222.293 299.156 220.001 301.122 217.059C303.087 214.118 304.136 210.659 304.136 207.122C304.131 202.379 302.245 197.833 298.891 194.479C295.538 191.126 290.991 189.24 286.249 189.234Z" fill="#E6E6E6"/>
<path d="M283.673 216.952C283.346 216.952 283.025 216.876 282.733 216.73C282.441 216.584 282.188 216.372 281.992 216.111L276.839 209.241C276.674 209.02 276.553 208.769 276.485 208.502C276.416 208.234 276.401 207.956 276.44 207.683C276.519 207.131 276.814 206.634 277.259 206.299C277.705 205.965 278.266 205.822 278.817 205.9C279.369 205.979 279.866 206.274 280.201 206.72L283.572 211.214L292.23 198.227C292.54 197.764 293.02 197.443 293.566 197.334C294.112 197.226 294.679 197.338 295.142 197.647C295.605 197.956 295.927 198.436 296.036 198.981C296.146 199.527 296.034 200.094 295.726 200.558L285.421 216.016C285.234 216.296 284.984 216.526 284.69 216.689C284.396 216.852 284.067 216.942 283.731 216.951L283.673 216.952Z" fill="#E6E6E6"/>
<path d="M235.374 9.33864C227.035 3.2436 216.967 -0.0282351 206.638 0.000183575C198.821 0.091589 191.146 2.09845 184.285 5.84494C177.424 9.59143 171.587 14.9632 167.285 21.4897C166.553 22.6083 168.154 23.9692 168.894 22.8388C174.136 14.8583 181.716 8.69272 190.597 5.18584C197.739 2.43383 205.458 1.51924 213.046 2.52594C220.633 3.53264 227.847 6.42839 234.024 10.9476C235.109 11.7454 236.465 10.1411 235.374 9.33864Z" fill="#E6E6E6"/>
<path d="M155.493 14.1763L150.809 31.5795C150.781 31.7384 150.79 31.9016 150.835 32.0565C150.88 32.2115 150.959 32.3541 151.068 32.4734C151.177 32.5927 151.311 32.6855 151.461 32.7447C151.611 32.8039 151.773 32.8278 151.934 32.8147L171.535 29.6758C172.862 29.4634 172.688 27.3701 171.351 27.5842L151.75 30.7231L152.875 31.9583L157.559 14.5551C157.91 13.2483 155.842 12.8799 155.493 14.1763Z" fill="#E6E6E6"/>
<path d="M166.167 246.946C174.506 253.041 184.574 256.313 194.903 256.285C202.72 256.193 210.395 254.187 217.256 250.44C224.116 246.694 229.954 241.322 234.256 234.795C234.988 233.677 233.387 232.316 232.647 233.446C227.405 241.427 219.825 247.592 210.944 251.099C203.802 253.851 196.083 254.766 188.495 253.759C180.907 252.752 173.694 249.857 167.516 245.337C166.431 244.54 165.076 246.144 166.167 246.946Z" fill="#E6E6E6"/>
<path d="M246.048 242.109L250.732 224.706C250.76 224.547 250.751 224.383 250.706 224.228C250.661 224.074 250.582 223.931 250.473 223.812C250.364 223.692 250.23 223.6 250.08 223.54C249.93 223.481 249.768 223.457 249.607 223.47L230.006 226.609C228.679 226.822 228.853 228.915 230.19 228.701L249.791 225.562L248.666 224.327L243.982 241.73C243.631 243.037 245.699 243.405 246.048 242.109Z" fill="#E6E6E6"/>
<path d="M412.38 50.4267H337.478C335.071 50.4267 332.761 49.4702 331.059 47.7676C329.356 46.065 328.4 43.7559 328.4 41.3481C328.4 38.9403 329.356 36.6311 331.059 34.9286C332.761 33.226 335.071 32.2695 337.478 32.2695H412.38C414.788 32.2695 417.097 33.226 418.8 34.9286C420.502 36.6311 421.459 38.9403 421.459 41.3481C421.459 43.7559 420.502 46.065 418.8 47.7676C417.097 49.4702 414.788 50.4267 412.38 50.4267Z" fill="#F2F2F2"/>
<path d="M410.659 41.348L414.233 37.7734C414.335 37.6728 414.415 37.5531 414.471 37.4212C414.526 37.2893 414.554 37.1478 414.555 37.0049C414.555 36.8619 414.527 36.7203 414.472 36.5882C414.418 36.456 414.338 36.336 414.237 36.2349C414.136 36.1338 414.016 36.0537 413.883 35.9991C413.751 35.9446 413.61 35.9167 413.467 35.917C413.324 35.9173 413.182 35.9459 413.05 36.001C412.919 36.0562 412.799 36.1368 412.698 36.2384L409.124 39.813L405.549 36.2384C405.448 36.1368 405.329 36.0562 405.197 36.001C405.065 35.9459 404.923 35.9173 404.781 35.917C404.638 35.9167 404.496 35.9446 404.364 35.9991C404.232 36.0537 404.112 36.1338 404.011 36.2349C403.909 36.336 403.829 36.456 403.775 36.5882C403.72 36.7203 403.692 36.8619 403.693 37.0049C403.693 37.1478 403.722 37.2893 403.777 37.4212C403.832 37.5531 403.913 37.6728 404.014 37.7734L407.589 41.348L404.039 44.8973C403.938 44.9979 403.857 45.1176 403.802 45.2494C403.747 45.3813 403.718 45.5228 403.718 45.6658C403.718 45.8087 403.746 45.9503 403.8 46.0824C403.855 46.2146 403.935 46.3346 404.036 46.4357C404.137 46.5368 404.257 46.6169 404.389 46.6715C404.521 46.726 404.663 46.754 404.806 46.7536C404.949 46.7533 405.09 46.7248 405.222 46.6696C405.354 46.6145 405.474 46.5338 405.574 46.4322L409.124 42.883L412.673 46.4322C412.877 46.6343 413.152 46.7473 413.439 46.7467C413.726 46.746 414.001 46.6317 414.204 46.4288C414.407 46.2258 414.522 45.9508 414.522 45.6637C414.523 45.3767 414.41 45.1011 414.208 44.8973L410.659 41.348Z" fill="white"/>
<path d="M293.401 325.255C293.268 325.255 293.136 325.229 293.013 325.177C292.89 325.125 292.779 325.05 292.686 324.954L286.98 319.121C286.797 318.934 286.695 318.683 286.695 318.422C286.695 318.161 286.797 317.91 286.98 317.723L292.686 311.89C292.778 311.795 292.887 311.719 293.008 311.666C293.129 311.613 293.26 311.585 293.392 311.583C293.524 311.581 293.655 311.605 293.778 311.654C293.901 311.702 294.013 311.775 294.107 311.868C294.202 311.96 294.277 312.07 294.328 312.192C294.38 312.314 294.407 312.444 294.408 312.576C294.409 312.708 294.383 312.839 294.333 312.962C294.283 313.084 294.209 313.195 294.116 313.289L289.094 318.422L294.116 323.556C294.254 323.697 294.347 323.875 294.383 324.068C294.42 324.261 294.399 324.461 294.323 324.643C294.246 324.824 294.118 324.979 293.954 325.088C293.79 325.197 293.598 325.255 293.401 325.255Z" fill="#3F3D56"/>
<path d="M302.989 325.255C302.793 325.255 302.6 325.197 302.436 325.088C302.272 324.979 302.144 324.824 302.068 324.643C301.991 324.462 301.97 324.262 302.007 324.068C302.044 323.875 302.137 323.697 302.275 323.556L307.296 318.422L302.275 313.289C302.092 313.099 301.992 312.844 301.996 312.581C302.001 312.317 302.109 312.066 302.297 311.882C302.485 311.698 302.739 311.595 303.002 311.597C303.266 311.598 303.518 311.704 303.704 311.89L309.41 317.723C309.593 317.91 309.695 318.161 309.695 318.422C309.695 318.684 309.593 318.935 309.41 319.121L303.704 324.954C303.611 325.05 303.5 325.126 303.377 325.177C303.255 325.229 303.123 325.255 302.989 325.255Z" fill="#3F3D56"/>
<path d="M322.213 220.08C322.747 218.614 323.596 217.283 324.7 216.181C325.804 215.079 327.136 214.232 328.602 213.7C330.069 213.168 331.634 212.965 333.188 213.104C334.742 213.242 336.246 213.72 337.595 214.503L431.927 189.783L433.475 209.216L341.172 229.804C339.706 231.983 337.492 233.549 334.949 234.205C332.406 234.861 329.71 234.561 327.373 233.362C325.036 232.164 323.22 230.15 322.269 227.702C321.318 225.253 321.298 222.541 322.213 220.08Z" fill="#FFB6B6"/>
<path d="M464.432 185.858C462.188 182.626 459.052 180.116 455.406 178.634C451.76 177.152 447.763 176.762 443.899 177.511L409.212 184.24C409.212 184.24 421.153 224.215 436.276 223.332C442.649 222.96 450.714 219.216 457.914 215.008C460.341 213.601 462.45 211.706 464.109 209.443C465.768 207.18 466.941 204.598 467.553 201.86C468.166 199.122 468.204 196.286 467.667 193.532C467.13 190.778 466.029 188.166 464.432 185.858Z" fill="#3F3D56"/>
<path d="M429.689 594.175L420.498 594.098L416.429 557.819L429.994 557.933L429.689 594.175Z" fill="#DABEBE"/>
<path d="M433.84 612.77L432.13 589.94L429.73 589.78L419.94 589.11L416.79 588.9L416.73 595.47L402.05 605.43C401.407 605.868 400.9 606.478 400.59 607.192C400.28 607.905 400.179 608.692 400.298 609.461C400.418 610.23 400.753 610.949 401.265 611.535C401.777 612.12 402.444 612.549 403.19 612.77C403.559 612.883 403.944 612.941 404.33 612.94L422.6 613.09L422.76 612.77L425.8 606.61L426.91 612.77L426.97 613.13L433.87 613.19L433.84 612.77Z" fill="#3F3D56"/>
<path d="M526.46 587.46L517.674 590.16L502.844 556.802L515.811 552.817L526.46 587.46Z" fill="#DABEBE"/>
<path d="M527.51 582.69L525.17 583.26L515.64 585.57H515.63L512.57 586.32L514.5 592.61L503.51 606.53C503.036 607.138 502.743 607.866 502.662 608.633C502.581 609.399 502.716 610.172 503.052 610.866C503.389 611.559 503.912 612.144 504.564 612.555C505.216 612.966 505.97 613.186 506.74 613.19C507.147 613.189 507.551 613.129 507.94 613.01L508.72 612.77L525.41 607.64L526.5 600.49L529.59 606.35L536.18 604.32L527.51 582.69Z" fill="#3F3D56"/>
<path d="M411.201 289.122L393.661 340.096L393.082 344.175C388.662 348.371 394.214 349.754 392.132 350.86C390.051 351.967 388.651 355.069 391.456 355.623C394.261 356.178 403.306 554.996 415.237 562.716C427.167 570.436 434.428 576.02 432.237 564.716C431.354 560.162 432.603 535.744 434.409 508.208C434.613 505.087 437.847 501.784 435.042 498.75C432.237 495.716 435.387 493.72 435.564 491.202C438.08 455.245 440.986 419.746 440.986 419.746C440.986 419.746 459.58 483.603 464.408 478.659C469.237 473.716 467.326 485.887 468.801 489.524C470.034 492.563 464.773 498.533 472.505 498.625C480.237 498.716 498.395 560.786 500.237 560.716C503.886 560.577 514.145 560.97 520.237 559.716C523.245 559.097 509.891 512.103 498.74 471.523C497.851 468.287 493.012 468.212 496.124 461.964C499.237 455.716 483.75 415.29 485.079 413.42C488.606 408.457 489.949 406.3 486.471 405.975C482.992 405.65 481.964 407.559 481.776 402.745C481.588 397.931 480.988 386.06 480.988 386.06C480.988 386.06 478.468 339.111 460.822 313.172L459.317 297.76L411.201 289.122Z" fill="#3F3D56"/>
<path d="M412.001 290.213C396.8 292.421 371.941 305.899 389.225 276.213L407.398 230.886C394.081 220.547 405.27 201.441 416.429 182.347L442.341 156.436H464.851L470.804 179.076C478.161 194.921 479.1 212.999 473.423 229.521C469.72 240.284 478.823 263.643 477.001 265.386C473.001 269.213 466.001 264.552 473.001 271.883C480.001 279.213 481.402 281.559 478.701 284.386C476.001 287.213 470.001 296.213 470.001 296.213L460.822 313.172L412.001 290.213Z" fill="#3F3D56"/>
<path d="M458.993 151.117C472.198 145.982 478.74 131.114 473.605 117.909C468.469 104.705 453.602 98.1629 440.397 103.298C427.192 108.433 420.65 123.301 425.786 136.506C430.921 149.711 445.788 156.252 458.993 151.117Z" fill="#FFB6B6"/>
<path d="M484.212 160.539C487.7 165.531 490.034 171.238 491.043 177.244C488.232 179.042 484.959 179.987 481.622 179.963C481.509 179.526 481.395 179.089 481.266 178.652C480.299 175.268 478.86 172.037 476.992 169.053C477.248 172.27 476.812 175.505 475.714 178.539C473.95 177.737 472.06 177.25 470.129 177.098C468.556 177.098 467.004 177.464 465.597 178.167C463.962 172.744 462.456 167.758 461.388 164.181C461.356 173.149 448.212 180.967 433.87 179.834C433.352 179.51 438.548 164.764 438.046 164.424C436.897 163.663 435.78 162.837 434.663 162.028C439.358 154.776 444.456 147.007 443.582 145.841C443.647 147.282 438.5 154.21 432.899 160.749C429.791 158.467 447.451 121.334 438.726 118.323C438.581 119.634 436.654 119.634 434.307 119.359C433.688 117.196 432.767 115.131 431.572 113.224C431.727 115.145 431.496 117.077 430.892 118.906C428.574 118.907 426.263 119.151 423.996 119.634C423.472 118.809 422.893 118.02 422.264 117.271C422.326 118.183 422.299 119.1 422.183 120.007C419.868 120.508 417.958 121.091 417.683 121.561C415.87 120.897 418.962 117.902 417.829 116.348C414.948 112.464 419.221 106.798 421.924 102.784C427.476 94.5607 439.665 91.7118 448.293 96.6488C448.681 95.3052 450.672 94.415 453.23 93.816C454.314 93.5771 455.423 93.4738 456.532 93.5085C467.539 93.7027 482.82 102.784 483.419 113.775C483.467 114.875 483.548 116.073 483.629 117.352C484.406 129.654 483.451 141.001 491.852 150.001C494.895 153.255 494.928 168.665 493.762 176.597C490.735 173.408 488.582 161.008 484.212 160.539Z" fill="#2F2E41"/>
<path d="M344.989 613.957C344.989 614.114 345.019 614.268 345.079 614.413C345.139 614.558 345.226 614.689 345.337 614.8C345.447 614.91 345.579 614.998 345.723 615.058C345.868 615.117 346.023 615.148 346.179 615.147H599.469C599.785 615.147 600.088 615.022 600.311 614.799C600.534 614.575 600.659 614.273 600.659 613.957C600.659 613.641 600.534 613.339 600.311 613.116C600.088 612.892 599.785 612.767 599.469 612.767H346.179C346.023 612.767 345.868 612.797 345.723 612.857C345.579 612.916 345.447 613.004 345.337 613.115C345.226 613.225 345.139 613.357 345.079 613.501C345.019 613.646 344.989 613.801 344.989 613.957Z" fill="#CCCCCC"/>
<path d="M465.735 357.202L413.285 405.87L344.912 384.781L328.99 315.024L381.44 266.356L449.813 287.445L465.735 357.202Z" fill="#F2F2F2"/>
<path d="M378.535 321.082C377.767 319.725 377.305 318.215 377.182 316.66C377.06 315.105 377.28 313.542 377.828 312.081C378.375 310.62 379.235 309.297 380.349 308.205C381.463 307.113 382.803 306.278 384.274 305.76L426.68 217.945L442.47 229.379L398.237 312.967C398.944 315.497 398.698 318.198 397.547 320.558C396.396 322.919 394.419 324.775 391.99 325.775C389.562 326.776 386.851 326.85 384.371 325.985C381.891 325.12 379.815 323.376 378.535 321.082Z" fill="#FFB6B6"/>
<path d="M444.787 190.667C440.871 190.277 436.926 191.035 433.433 192.847C429.939 194.659 427.048 197.448 425.112 200.873L407.722 231.632C407.722 231.632 445.887 248.487 455.028 236.408C458.88 231.318 461.266 222.751 462.736 214.543C463.24 211.783 463.167 208.948 462.522 206.218C461.877 203.487 460.673 200.919 458.987 198.677C457.301 196.434 455.169 194.564 452.725 193.186C450.281 191.807 447.578 190.95 444.787 190.667Z" fill="#3F3D56"/>
<path d="M336.146 179.271V265.681C336.142 268.024 335.21 270.27 333.553 271.927C331.896 273.584 329.65 274.517 327.307 274.521H261.026L261.636 273.741C296.506 250.461 321.217 219.401 335.367 180.261L336.146 179.271Z" fill="#66BC46"/>
<path d="M56.647 242.521L38.46 274.021H74.833L56.647 242.521L38.46 274.021H74.833L56.647 242.521Z" fill="#F2F2F2"/>
<path d="M194.293 390.921C227.611 390.921 254.62 363.912 254.62 330.594C254.62 297.276 227.611 270.267 194.293 270.267C160.975 270.267 133.965 297.276 133.965 330.594C133.965 363.912 160.975 390.921 194.293 390.921Z" fill="#F2F2F2"/>
</g>
<defs>
<clipPath id="clip0_17_421">
<rect width="600.799" height="615.147" fill="white"/>
</clipPath>
</defs>
</svg>
