<svg width="100" height="100" viewBox="0 0 100 100" fill="none" xmlns="http://www.w3.org/2000/svg">
<mask id="mask0_17_460" style="mask-type:luminance" maskUnits="userSpaceOnUse" x="33" y="16" width="35" height="48">
<path d="M33.6 16.7998H67.6062V63.4665H33.6V16.7998Z" fill="white"/>
</mask>
<g mask="url(#mask0_17_460)">
<mask id="path-2-inside-1_17_460" fill="white">
<path d="M67.5364 45.5518C67.527 45.3633 67.4989 45.1768 67.4531 44.9935C67.4062 44.8112 67.3427 44.6341 67.2614 44.4633C67.1802 44.2924 67.0833 44.131 66.9708 43.9799C66.8572 43.8279 66.7302 43.6893 66.5895 43.5633C66.4499 43.4362 66.2979 43.3247 66.1354 43.2289C65.9729 43.132 65.802 43.0529 65.6239 42.9904C65.4458 42.9279 65.2624 42.8831 65.076 42.857C64.8885 42.8299 64.701 42.8226 64.5114 42.8331C64.3229 42.8435 64.1374 42.8726 63.9541 42.9206C63.7718 42.9674 63.5947 43.0331 63.4249 43.1154C63.2552 43.1976 63.0947 43.2956 62.9437 43.4101C62.7927 43.5247 62.6552 43.6518 62.5302 43.7935C62.4041 43.9351 62.2937 44.0872 62.1989 44.2508C62.1041 44.4143 62.026 44.5851 61.9645 44.7643C61.9031 44.9424 61.8604 45.1258 61.8343 45.3133C61.8093 45.5008 61.8031 45.6883 61.8156 45.8779C61.827 46.0862 61.8322 46.2987 61.8322 46.5112C61.8322 46.731 61.826 46.9497 61.8135 47.1695C61.801 47.3893 61.7812 47.6081 61.7552 47.8258C61.7302 48.0445 61.6979 48.2612 61.6593 48.4779C61.6208 48.6945 61.576 48.9091 61.5249 49.1226C61.4739 49.3362 61.4156 49.5487 61.352 49.7591C61.2885 49.9685 61.2187 50.1768 61.1427 50.3831C61.0666 50.5893 60.9843 50.7935 60.8968 50.9945C60.8083 51.1956 60.7145 51.3945 60.6145 51.5904C60.5145 51.7862 60.4093 51.9789 60.2979 52.1685C60.1874 52.3581 60.0708 52.5435 59.9479 52.7268C59.826 52.9091 59.6989 53.0883 59.5656 53.2633C59.4333 53.4383 59.2958 53.6091 59.1531 53.7768C59.0104 53.9435 58.8624 54.106 58.7104 54.2643C58.5572 54.4226 58.401 54.5758 58.2395 54.7247C58.0781 54.8747 57.9124 55.0185 57.7416 55.1581C57.5718 55.2966 57.3979 55.431 57.2197 55.5601C57.0427 55.6893 56.8604 55.8122 56.676 55.931C56.4906 56.0487 56.302 56.1622 56.1104 56.2685C55.9177 56.3758 55.7229 56.4779 55.5249 56.5726C55.3281 56.6685 55.127 56.7581 54.9239 56.8424C54.7208 56.9258 54.5156 57.0039 54.3072 57.0758C54.0999 57.1466 53.8906 57.2122 53.6791 57.2716C53.4677 57.331 53.2541 57.3841 53.0395 57.431C52.8249 57.4779 52.6083 57.5174 52.3916 57.5518C52.1749 57.5862 51.9562 57.6133 51.7374 57.6341C51.5197 57.6549 51.2999 57.6695 51.0802 57.6779C50.8614 57.6862 50.6416 57.6883 50.4218 57.6831C50.202 57.6789 49.9822 57.6674 49.7635 57.6497C49.5447 57.632 49.326 57.607 49.1083 57.5768C48.8906 57.5466 48.6749 57.5091 48.4593 57.4654C48.2437 57.4226 48.0302 57.3726 47.8177 57.3164C47.6052 57.2601 47.3947 57.1976 47.1854 57.1299C46.977 57.0612 46.7697 56.9862 46.5656 56.906C46.3614 56.8247 46.1593 56.7383 45.9604 56.6456C45.7614 56.5539 45.5645 56.4549 45.3708 56.3508C45.1781 56.2466 44.9874 56.1372 44.801 56.0216C44.6135 55.906 44.4302 55.7851 44.2499 55.6591C44.0708 55.5331 43.8947 55.4008 43.7229 55.2643C43.5499 55.1279 43.3822 54.9862 43.2187 54.8393C43.0552 54.6935 42.8958 54.5424 42.7406 54.3862C42.5864 54.2299 42.4364 54.0695 42.2906 53.9049C42.1458 53.7404 42.0052 53.5716 41.8697 53.3977C41.7343 53.2247 41.6041 53.0477 41.4791 52.8674C41.3541 52.6862 41.2354 52.5018 41.1208 52.3143C41.0072 52.1268 40.8989 51.9351 40.7958 51.7414C40.6927 51.5477 40.5958 51.3497 40.5052 51.1497C40.4135 50.9497 40.3281 50.7476 40.2489 50.5424C40.1697 50.3372 40.0968 50.131 40.0302 49.9216C39.9635 49.7122 39.9031 49.5008 39.8479 49.2883C39.7937 49.0747 39.7458 48.8612 39.7041 48.6456C39.6614 48.4299 39.626 48.2122 39.5979 47.9945C39.5687 47.7768 39.5458 47.5591 39.5291 47.3393C39.5135 47.1206 39.5041 46.9008 39.501 46.681C39.4979 46.4612 39.501 46.2424 39.5104 46.0226C39.5208 45.8029 39.5364 45.5841 39.5593 45.3654C39.5822 45.1466 39.6114 44.9289 39.6468 44.7122C39.6822 44.4956 39.7239 44.2799 39.7729 44.0654C39.8208 43.8508 39.8749 43.6383 39.9364 43.4268C39.9968 43.2164 40.0635 43.007 40.1374 42.7997C40.2104 42.5924 40.2895 42.3872 40.3749 42.1851C40.4604 41.9831 40.551 41.7831 40.6489 41.5862C40.7458 41.3883 40.8479 41.1945 40.9572 41.0039C41.0656 40.8122 41.1791 40.6247 41.2989 40.4404C41.4187 40.256 41.5437 40.0758 41.6739 39.8987C41.8041 39.7216 41.9395 39.5487 42.0802 39.3799C42.2208 39.2112 42.3656 39.0466 42.5166 38.8862C42.6666 38.7258 42.8208 38.5695 42.9802 38.4185C43.1406 38.2674 43.3041 38.1206 43.4718 37.9789C43.6395 37.8372 43.8124 37.7008 43.9885 37.5695C44.1645 37.4383 44.3437 37.3122 44.5281 37.1914C44.7114 37.0706 44.8979 36.9549 45.0885 36.8456C45.2791 36.7362 45.4718 36.632 45.6687 36.5331C45.8656 36.4351 46.0645 36.3424 46.2666 36.256C46.4687 36.1695 46.6729 36.0893 46.8791 36.0143C47.0864 35.9404 47.2947 35.8716 47.5052 35.8091C47.7166 35.7476 47.9291 35.6914 48.1427 35.6414C48.3572 35.5924 48.5718 35.5487 48.7885 35.5122C49.0052 35.4747 49.2229 35.4445 49.4416 35.4206C49.6593 35.3966 49.8791 35.3789 50.0979 35.3674C50.3177 35.356 50.5374 35.3518 50.7572 35.3529C50.977 35.3549 51.1958 35.3633 51.4156 35.3779C51.6343 35.3924 51.8531 35.4143 52.0708 35.4414C52.2895 35.4695 52.5062 35.5039 52.7218 35.5435C52.9385 35.5841 53.1531 35.631 53.3656 35.6841C53.5791 35.7372 53.7906 35.7966 53.9999 35.8622C54.2104 35.9279 54.4177 35.9997 54.6229 36.0779C54.8281 36.156 55.0312 36.2393 55.2322 36.3289C55.4322 36.4195 55.6302 36.5143 55.8249 36.6164C56.0197 36.7174 56.2114 36.8247 56.3999 36.9383C56.5885 37.0508 56.7739 37.1685 56.9552 37.2924C57.1374 37.4164 57.3145 37.5456 57.4885 37.6799C57.6624 37.8143 57.8322 37.9529 57.9979 38.0976C58.1635 38.2414 58.3249 38.3904 58.4822 38.5445C58.6395 38.6987 58.7916 38.857 58.9385 39.0195C59.0864 39.182 59.2291 39.3497 59.3666 39.5206C59.5041 39.6914 59.6374 39.8674 59.7645 40.0456C59.8739 40.1987 59.9968 40.3404 60.1333 40.4695C60.2708 40.5987 60.4187 40.7122 60.5781 40.8122C60.7374 40.9122 60.9052 40.9956 61.0812 41.0622C61.2562 41.1289 61.4374 41.1779 61.6229 41.2091C61.8083 41.2404 61.9947 41.2539 62.1833 41.2476C62.3708 41.2424 62.5562 41.2185 62.7395 41.1768C62.9229 41.1341 63.101 41.0747 63.2718 40.9976C63.4437 40.9206 63.6062 40.8279 63.7593 40.7185C63.9124 40.6101 64.0541 40.4872 64.1833 40.3497C64.3114 40.2133 64.426 40.0654 64.526 39.906C64.626 39.7466 64.7093 39.5789 64.776 39.4029C64.8437 39.2268 64.8927 39.0466 64.9239 38.8612C64.9552 38.6758 64.9677 38.4893 64.9624 38.3008C64.9572 38.1133 64.9333 37.9279 64.8916 37.7445C64.8489 37.5612 64.7895 37.3831 64.7124 37.2112C64.6364 37.0404 64.5427 36.8779 64.4343 36.7247C63.8333 35.881 63.1604 35.0997 62.4166 34.381C61.6729 33.6612 60.8687 33.0154 60.0062 32.4424C59.1437 31.8706 58.2364 31.381 57.2843 30.9747C56.3322 30.5685 55.351 30.2529 54.3406 30.0258L58.9979 20.5779C59.0718 20.4279 59.1302 20.2727 59.1739 20.1102C59.2166 19.9487 59.2437 19.7852 59.2552 19.6174C59.2666 19.4508 59.2604 19.2841 59.2395 19.1185C59.2177 18.9529 59.1791 18.7904 59.126 18.632C59.0718 18.4737 59.0031 18.3216 58.9197 18.1768C58.8364 18.032 58.7395 17.8966 58.6291 17.7706C58.5187 17.6445 58.3968 17.531 58.2645 17.4289C58.1322 17.3268 57.9906 17.2393 57.8406 17.1654C57.6906 17.0914 57.5343 17.032 57.3729 16.9893C57.2114 16.9456 57.0468 16.9185 56.8802 16.907C56.7135 16.8966 56.5468 16.9018 56.3812 16.9237C56.2145 16.9456 56.0531 16.9831 55.8947 17.0372C55.7354 17.0904 55.5843 17.1591 55.4395 17.2424C55.2947 17.3268 55.1593 17.4237 55.0333 17.5331C54.9072 17.6435 54.7937 17.7654 54.6916 17.8977C54.5895 18.031 54.502 18.1716 54.427 18.3227L47.7499 29.8758L47.6468 29.8945L49.9322 20.9612C49.9864 20.7987 50.0239 20.6331 50.0437 20.4633C50.0645 20.2935 50.0677 20.1227 50.0531 19.9518C50.0395 19.782 50.0083 19.6143 49.9604 19.4497C49.9124 19.2852 49.8489 19.1279 49.7697 18.9758C49.6895 18.8247 49.5958 18.6831 49.4874 18.5497C49.3802 18.4174 49.2593 18.2977 49.127 18.1893C48.9947 18.081 48.852 17.9862 48.701 17.907C48.5499 17.8268 48.3916 17.7633 48.227 17.7154C48.0635 17.6674 47.8958 17.6362 47.7249 17.6227C47.5552 17.6081 47.3843 17.6112 47.2145 17.631C47.0447 17.6518 46.8781 17.6883 46.7156 17.7424C46.5531 17.7956 46.3979 17.8654 46.2499 17.9497C46.101 18.0352 45.9624 18.1341 45.8343 18.2466C45.7052 18.3602 45.5895 18.4841 45.4854 18.6206C45.3822 18.757 45.2937 18.9018 45.2197 19.056C45.1447 19.2102 45.0874 19.3706 45.0447 19.5362L40.7947 32.5299V23.6727C40.8041 23.5029 40.7958 23.3341 40.7718 23.1664C40.7468 22.9977 40.7062 22.8341 40.6489 22.6747C40.5916 22.5143 40.5187 22.3622 40.4312 22.2174C40.3427 22.0716 40.2416 21.9362 40.127 21.8112C40.0114 21.6872 39.8854 21.5747 39.7489 21.4747C39.6114 21.3747 39.4656 21.2893 39.3114 21.2185C39.1562 21.1487 38.9968 21.0935 38.8312 21.0549C38.6666 21.0164 38.4989 20.9945 38.3291 20.9893C38.1593 20.9841 37.9906 20.9956 37.8239 21.0237C37.6562 21.0529 37.4937 21.0977 37.3354 21.1581C37.177 21.2195 37.026 21.2956 36.8833 21.3872C36.7395 21.4779 36.6072 21.582 36.4843 21.6997C36.3624 21.8174 36.2531 21.9466 36.1562 22.0862C36.0593 22.2258 35.9781 22.3737 35.9114 22.5289C35.8437 22.6852 35.7927 22.8466 35.7583 23.0122C35.7229 23.1789 35.7052 23.3466 35.7041 23.5164L35.2062 39.6966C35.0791 39.9831 34.9614 40.2726 34.851 40.5654C34.7406 40.8591 34.6385 41.1549 34.5447 41.4529C34.451 41.7518 34.3656 42.0529 34.2885 42.357C34.2114 42.6601 34.1437 42.9654 34.0833 43.2726C34.0229 43.5799 33.9718 43.8893 33.9291 44.1987C33.8864 44.5091 33.852 44.8206 33.826 45.132C33.801 45.4445 33.7833 45.757 33.7749 46.0695C33.7677 46.3831 33.7677 46.6956 33.777 47.0091C33.7864 47.3216 33.8041 47.6341 33.8302 47.9466C33.8572 48.2581 33.8927 48.5695 33.9364 48.8789C33.9802 49.1893 34.0322 49.4976 34.0937 49.8049C34.1541 50.1122 34.2239 50.4174 34.302 50.7206C34.3802 51.0237 34.4656 51.3247 34.5604 51.6227C34.6552 51.9216 34.7583 52.2174 34.8697 52.5102C34.9802 52.8029 35.0999 53.0924 35.227 53.3779C35.3541 53.6643 35.4895 53.9466 35.6322 54.2247C35.7749 54.5039 35.926 54.7779 36.0833 55.0487C36.2416 55.3185 36.4072 55.5841 36.5802 55.8456C36.7531 56.106 36.9333 56.3622 37.1208 56.6133C37.3072 56.8643 37.502 57.1101 37.702 57.3497C37.9031 57.5904 38.1104 57.8247 38.3249 58.0539C38.5385 58.282 38.7583 58.5049 38.9843 58.7216C39.2104 58.9372 39.4427 59.1476 39.6812 59.3508C39.9187 59.5549 40.1624 59.7518 40.4104 59.9414C40.6593 60.132 40.9135 60.3143 41.1729 60.4904C41.4312 60.6664 41.6958 60.8351 41.9635 60.9966C42.2322 61.1581 42.5052 61.3112 42.7812 61.457C43.0583 61.6039 43.3395 61.7414 43.6239 61.8726C43.9083 62.0029 44.1968 62.1247 44.4885 62.2393C44.7791 62.3539 45.0739 62.4601 45.3708 62.5591C45.6687 62.657 45.9687 62.7466 46.2708 62.8279C46.5729 62.9091 46.877 62.982 47.1833 63.0466C47.4906 63.1112 47.7979 63.1674 48.1072 63.2143C48.4166 63.2622 48.7281 63.3008 49.0395 63.331C49.351 63.3612 49.6635 63.3831 49.976 63.3956C50.2885 63.4081 50.602 63.4122 50.9145 63.4081C51.2281 63.4029 51.5406 63.3904 51.8531 63.3674C52.1656 63.3456 52.477 63.3154 52.7874 63.2758C53.0979 63.2362 53.4072 63.1883 53.7156 63.132C54.0229 63.0758 54.3291 63.0101 54.6343 62.9372C54.9385 62.8633 55.2406 62.782 55.5395 62.6914C55.8395 62.6008 56.1364 62.5029 56.4312 62.3956C56.726 62.2883 57.0166 62.1737 57.3041 62.0508C57.5927 61.9279 57.877 61.7966 58.1572 61.6581C58.4385 61.5195 58.7145 61.3726 58.9874 61.2185C59.2593 61.0643 59.5281 60.9029 59.7916 60.7331C60.0552 60.5643 60.3135 60.3883 60.5666 60.2049C60.8208 60.0216 61.0687 59.831 61.3124 59.6331C61.5552 59.4362 61.7927 59.232 62.0249 59.0216C62.2562 58.8112 62.4822 58.5945 62.702 58.3716C62.9218 58.1487 63.1354 57.9195 63.3416 57.6851C63.5489 57.4497 63.7499 57.2091 63.9427 56.9633C64.1364 56.7174 64.3239 56.4664 64.5031 56.2091C64.6833 55.9529 64.8552 55.6914 65.0208 55.4258C65.1854 55.1601 65.3427 54.8893 65.4937 54.6143C65.6437 54.3404 65.7854 54.0612 65.9208 53.7789C66.0552 53.4956 66.1822 53.2101 66.2999 52.9195C66.4187 52.6299 66.5302 52.3372 66.6322 52.0414C66.7343 51.7456 66.8291 51.4477 66.9145 51.1466C67.001 50.8445 67.0781 50.5414 67.1468 50.2362C67.2156 49.931 67.276 49.6237 67.3281 49.3154C67.3802 49.006 67.4239 48.6966 67.4583 48.3851C67.4927 48.0737 67.5187 47.7622 67.5364 47.4497C67.5541 47.1372 67.5624 46.8237 67.5624 46.5112C67.5624 46.1893 67.5552 45.8695 67.5364 45.5518Z"/>
</mask>
<path d="M67.5364 45.5518C67.527 45.3633 67.4989 45.1768 67.4531 44.9935C67.4062 44.8112 67.3427 44.6341 67.2614 44.4633C67.1802 44.2924 67.0833 44.131 66.9708 43.9799C66.8572 43.8279 66.7302 43.6893 66.5895 43.5633C66.4499 43.4362 66.2979 43.3247 66.1354 43.2289C65.9729 43.132 65.802 43.0529 65.6239 42.9904C65.4458 42.9279 65.2624 42.8831 65.076 42.857C64.8885 42.8299 64.701 42.8226 64.5114 42.8331C64.3229 42.8435 64.1374 42.8726 63.9541 42.9206C63.7718 42.9674 63.5947 43.0331 63.4249 43.1154C63.2552 43.1976 63.0947 43.2956 62.9437 43.4101C62.7927 43.5247 62.6552 43.6518 62.5302 43.7935C62.4041 43.9351 62.2937 44.0872 62.1989 44.2508C62.1041 44.4143 62.026 44.5851 61.9645 44.7643C61.9031 44.9424 61.8604 45.1258 61.8343 45.3133C61.8093 45.5008 61.8031 45.6883 61.8156 45.8779C61.827 46.0862 61.8322 46.2987 61.8322 46.5112C61.8322 46.731 61.826 46.9497 61.8135 47.1695C61.801 47.3893 61.7812 47.6081 61.7552 47.8258C61.7302 48.0445 61.6979 48.2612 61.6593 48.4779C61.6208 48.6945 61.576 48.9091 61.5249 49.1226C61.4739 49.3362 61.4156 49.5487 61.352 49.7591C61.2885 49.9685 61.2187 50.1768 61.1427 50.3831C61.0666 50.5893 60.9843 50.7935 60.8968 50.9945C60.8083 51.1956 60.7145 51.3945 60.6145 51.5904C60.5145 51.7862 60.4093 51.9789 60.2979 52.1685C60.1874 52.3581 60.0708 52.5435 59.9479 52.7268C59.826 52.9091 59.6989 53.0883 59.5656 53.2633C59.4333 53.4383 59.2958 53.6091 59.1531 53.7768C59.0104 53.9435 58.8624 54.106 58.7104 54.2643C58.5572 54.4226 58.401 54.5758 58.2395 54.7247C58.0781 54.8747 57.9124 55.0185 57.7416 55.1581C57.5718 55.2966 57.3979 55.431 57.2197 55.5601C57.0427 55.6893 56.8604 55.8122 56.676 55.931C56.4906 56.0487 56.302 56.1622 56.1104 56.2685C55.9177 56.3758 55.7229 56.4779 55.5249 56.5726C55.3281 56.6685 55.127 56.7581 54.9239 56.8424C54.7208 56.9258 54.5156 57.0039 54.3072 57.0758C54.0999 57.1466 53.8906 57.2122 53.6791 57.2716C53.4677 57.331 53.2541 57.3841 53.0395 57.431C52.8249 57.4779 52.6083 57.5174 52.3916 57.5518C52.1749 57.5862 51.9562 57.6133 51.7374 57.6341C51.5197 57.6549 51.2999 57.6695 51.0802 57.6779C50.8614 57.6862 50.6416 57.6883 50.4218 57.6831C50.202 57.6789 49.9822 57.6674 49.7635 57.6497C49.5447 57.632 49.326 57.607 49.1083 57.5768C48.8906 57.5466 48.6749 57.5091 48.4593 57.4654C48.2437 57.4226 48.0302 57.3726 47.8177 57.3164C47.6052 57.2601 47.3947 57.1976 47.1854 57.1299C46.977 57.0612 46.7697 56.9862 46.5656 56.906C46.3614 56.8247 46.1593 56.7383 45.9604 56.6456C45.7614 56.5539 45.5645 56.4549 45.3708 56.3508C45.1781 56.2466 44.9874 56.1372 44.801 56.0216C44.6135 55.906 44.4302 55.7851 44.2499 55.6591C44.0708 55.5331 43.8947 55.4008 43.7229 55.2643C43.5499 55.1279 43.3822 54.9862 43.2187 54.8393C43.0552 54.6935 42.8958 54.5424 42.7406 54.3862C42.5864 54.2299 42.4364 54.0695 42.2906 53.9049C42.1458 53.7404 42.0052 53.5716 41.8697 53.3977C41.7343 53.2247 41.6041 53.0477 41.4791 52.8674C41.3541 52.6862 41.2354 52.5018 41.1208 52.3143C41.0072 52.1268 40.8989 51.9351 40.7958 51.7414C40.6927 51.5477 40.5958 51.3497 40.5052 51.1497C40.4135 50.9497 40.3281 50.7476 40.2489 50.5424C40.1697 50.3372 40.0968 50.131 40.0302 49.9216C39.9635 49.7122 39.9031 49.5008 39.8479 49.2883C39.7937 49.0747 39.7458 48.8612 39.7041 48.6456C39.6614 48.4299 39.626 48.2122 39.5979 47.9945C39.5687 47.7768 39.5458 47.5591 39.5291 47.3393C39.5135 47.1206 39.5041 46.9008 39.501 46.681C39.4979 46.4612 39.501 46.2424 39.5104 46.0226C39.5208 45.8029 39.5364 45.5841 39.5593 45.3654C39.5822 45.1466 39.6114 44.9289 39.6468 44.7122C39.6822 44.4956 39.7239 44.2799 39.7729 44.0654C39.8208 43.8508 39.8749 43.6383 39.9364 43.4268C39.9968 43.2164 40.0635 43.007 40.1374 42.7997C40.2104 42.5924 40.2895 42.3872 40.3749 42.1851C40.4604 41.9831 40.551 41.7831 40.6489 41.5862C40.7458 41.3883 40.8479 41.1945 40.9572 41.0039C41.0656 40.8122 41.1791 40.6247 41.2989 40.4404C41.4187 40.256 41.5437 40.0758 41.6739 39.8987C41.8041 39.7216 41.9395 39.5487 42.0802 39.3799C42.2208 39.2112 42.3656 39.0466 42.5166 38.8862C42.6666 38.7258 42.8208 38.5695 42.9802 38.4185C43.1406 38.2674 43.3041 38.1206 43.4718 37.9789C43.6395 37.8372 43.8124 37.7008 43.9885 37.5695C44.1645 37.4383 44.3437 37.3122 44.5281 37.1914C44.7114 37.0706 44.8979 36.9549 45.0885 36.8456C45.2791 36.7362 45.4718 36.632 45.6687 36.5331C45.8656 36.4351 46.0645 36.3424 46.2666 36.256C46.4687 36.1695 46.6729 36.0893 46.8791 36.0143C47.0864 35.9404 47.2947 35.8716 47.5052 35.8091C47.7166 35.7476 47.9291 35.6914 48.1427 35.6414C48.3572 35.5924 48.5718 35.5487 48.7885 35.5122C49.0052 35.4747 49.2229 35.4445 49.4416 35.4206C49.6593 35.3966 49.8791 35.3789 50.0979 35.3674C50.3177 35.356 50.5374 35.3518 50.7572 35.3529C50.977 35.3549 51.1958 35.3633 51.4156 35.3779C51.6343 35.3924 51.8531 35.4143 52.0708 35.4414C52.2895 35.4695 52.5062 35.5039 52.7218 35.5435C52.9385 35.5841 53.1531 35.631 53.3656 35.6841C53.5791 35.7372 53.7906 35.7966 53.9999 35.8622C54.2104 35.9279 54.4177 35.9997 54.6229 36.0779C54.8281 36.156 55.0312 36.2393 55.2322 36.3289C55.4322 36.4195 55.6302 36.5143 55.8249 36.6164C56.0197 36.7174 56.2114 36.8247 56.3999 36.9383C56.5885 37.0508 56.7739 37.1685 56.9552 37.2924C57.1374 37.4164 57.3145 37.5456 57.4885 37.6799C57.6624 37.8143 57.8322 37.9529 57.9979 38.0976C58.1635 38.2414 58.3249 38.3904 58.4822 38.5445C58.6395 38.6987 58.7916 38.857 58.9385 39.0195C59.0864 39.182 59.2291 39.3497 59.3666 39.5206C59.5041 39.6914 59.6374 39.8674 59.7645 40.0456C59.8739 40.1987 59.9968 40.3404 60.1333 40.4695C60.2708 40.5987 60.4187 40.7122 60.5781 40.8122C60.7374 40.9122 60.9052 40.9956 61.0812 41.0622C61.2562 41.1289 61.4374 41.1779 61.6229 41.2091C61.8083 41.2404 61.9947 41.2539 62.1833 41.2476C62.3708 41.2424 62.5562 41.2185 62.7395 41.1768C62.9229 41.1341 63.101 41.0747 63.2718 40.9976C63.4437 40.9206 63.6062 40.8279 63.7593 40.7185C63.9124 40.6101 64.0541 40.4872 64.1833 40.3497C64.3114 40.2133 64.426 40.0654 64.526 39.906C64.626 39.7466 64.7093 39.5789 64.776 39.4029C64.8437 39.2268 64.8927 39.0466 64.9239 38.8612C64.9552 38.6758 64.9677 38.4893 64.9624 38.3008C64.9572 38.1133 64.9333 37.9279 64.8916 37.7445C64.8489 37.5612 64.7895 37.3831 64.7124 37.2112C64.6364 37.0404 64.5427 36.8779 64.4343 36.7247C63.8333 35.881 63.1604 35.0997 62.4166 34.381C61.6729 33.6612 60.8687 33.0154 60.0062 32.4424C59.1437 31.8706 58.2364 31.381 57.2843 30.9747C56.3322 30.5685 55.351 30.2529 54.3406 30.0258L58.9979 20.5779C59.0718 20.4279 59.1302 20.2727 59.1739 20.1102C59.2166 19.9487 59.2437 19.7852 59.2552 19.6174C59.2666 19.4508 59.2604 19.2841 59.2395 19.1185C59.2177 18.9529 59.1791 18.7904 59.126 18.632C59.0718 18.4737 59.0031 18.3216 58.9197 18.1768C58.8364 18.032 58.7395 17.8966 58.6291 17.7706C58.5187 17.6445 58.3968 17.531 58.2645 17.4289C58.1322 17.3268 57.9906 17.2393 57.8406 17.1654C57.6906 17.0914 57.5343 17.032 57.3729 16.9893C57.2114 16.9456 57.0468 16.9185 56.8802 16.907C56.7135 16.8966 56.5468 16.9018 56.3812 16.9237C56.2145 16.9456 56.0531 16.9831 55.8947 17.0372C55.7354 17.0904 55.5843 17.1591 55.4395 17.2424C55.2947 17.3268 55.1593 17.4237 55.0333 17.5331C54.9072 17.6435 54.7937 17.7654 54.6916 17.8977C54.5895 18.031 54.502 18.1716 54.427 18.3227L47.7499 29.8758L47.6468 29.8945L49.9322 20.9612C49.9864 20.7987 50.0239 20.6331 50.0437 20.4633C50.0645 20.2935 50.0677 20.1227 50.0531 19.9518C50.0395 19.782 50.0083 19.6143 49.9604 19.4497C49.9124 19.2852 49.8489 19.1279 49.7697 18.9758C49.6895 18.8247 49.5958 18.6831 49.4874 18.5497C49.3802 18.4174 49.2593 18.2977 49.127 18.1893C48.9947 18.081 48.852 17.9862 48.701 17.907C48.5499 17.8268 48.3916 17.7633 48.227 17.7154C48.0635 17.6674 47.8958 17.6362 47.7249 17.6227C47.5552 17.6081 47.3843 17.6112 47.2145 17.631C47.0447 17.6518 46.8781 17.6883 46.7156 17.7424C46.5531 17.7956 46.3979 17.8654 46.2499 17.9497C46.101 18.0352 45.9624 18.1341 45.8343 18.2466C45.7052 18.3602 45.5895 18.4841 45.4854 18.6206C45.3822 18.757 45.2937 18.9018 45.2197 19.056C45.1447 19.2102 45.0874 19.3706 45.0447 19.5362L40.7947 32.5299V23.6727C40.8041 23.5029 40.7958 23.3341 40.7718 23.1664C40.7468 22.9977 40.7062 22.8341 40.6489 22.6747C40.5916 22.5143 40.5187 22.3622 40.4312 22.2174C40.3427 22.0716 40.2416 21.9362 40.127 21.8112C40.0114 21.6872 39.8854 21.5747 39.7489 21.4747C39.6114 21.3747 39.4656 21.2893 39.3114 21.2185C39.1562 21.1487 38.9968 21.0935 38.8312 21.0549C38.6666 21.0164 38.4989 20.9945 38.3291 20.9893C38.1593 20.9841 37.9906 20.9956 37.8239 21.0237C37.6562 21.0529 37.4937 21.0977 37.3354 21.1581C37.177 21.2195 37.026 21.2956 36.8833 21.3872C36.7395 21.4779 36.6072 21.582 36.4843 21.6997C36.3624 21.8174 36.2531 21.9466 36.1562 22.0862C36.0593 22.2258 35.9781 22.3737 35.9114 22.5289C35.8437 22.6852 35.7927 22.8466 35.7583 23.0122C35.7229 23.1789 35.7052 23.3466 35.7041 23.5164L35.2062 39.6966C35.0791 39.9831 34.9614 40.2726 34.851 40.5654C34.7406 40.8591 34.6385 41.1549 34.5447 41.4529C34.451 41.7518 34.3656 42.0529 34.2885 42.357C34.2114 42.6601 34.1437 42.9654 34.0833 43.2726C34.0229 43.5799 33.9718 43.8893 33.9291 44.1987C33.8864 44.5091 33.852 44.8206 33.826 45.132C33.801 45.4445 33.7833 45.757 33.7749 46.0695C33.7677 46.3831 33.7677 46.6956 33.777 47.0091C33.7864 47.3216 33.8041 47.6341 33.8302 47.9466C33.8572 48.2581 33.8927 48.5695 33.9364 48.8789C33.9802 49.1893 34.0322 49.4976 34.0937 49.8049C34.1541 50.1122 34.2239 50.4174 34.302 50.7206C34.3802 51.0237 34.4656 51.3247 34.5604 51.6227C34.6552 51.9216 34.7583 52.2174 34.8697 52.5102C34.9802 52.8029 35.0999 53.0924 35.227 53.3779C35.3541 53.6643 35.4895 53.9466 35.6322 54.2247C35.7749 54.5039 35.926 54.7779 36.0833 55.0487C36.2416 55.3185 36.4072 55.5841 36.5802 55.8456C36.7531 56.106 36.9333 56.3622 37.1208 56.6133C37.3072 56.8643 37.502 57.1101 37.702 57.3497C37.9031 57.5904 38.1104 57.8247 38.3249 58.0539C38.5385 58.282 38.7583 58.5049 38.9843 58.7216C39.2104 58.9372 39.4427 59.1476 39.6812 59.3508C39.9187 59.5549 40.1624 59.7518 40.4104 59.9414C40.6593 60.132 40.9135 60.3143 41.1729 60.4904C41.4312 60.6664 41.6958 60.8351 41.9635 60.9966C42.2322 61.1581 42.5052 61.3112 42.7812 61.457C43.0583 61.6039 43.3395 61.7414 43.6239 61.8726C43.9083 62.0029 44.1968 62.1247 44.4885 62.2393C44.7791 62.3539 45.0739 62.4601 45.3708 62.5591C45.6687 62.657 45.9687 62.7466 46.2708 62.8279C46.5729 62.9091 46.877 62.982 47.1833 63.0466C47.4906 63.1112 47.7979 63.1674 48.1072 63.2143C48.4166 63.2622 48.7281 63.3008 49.0395 63.331C49.351 63.3612 49.6635 63.3831 49.976 63.3956C50.2885 63.4081 50.602 63.4122 50.9145 63.4081C51.2281 63.4029 51.5406 63.3904 51.8531 63.3674C52.1656 63.3456 52.477 63.3154 52.7874 63.2758C53.0979 63.2362 53.4072 63.1883 53.7156 63.132C54.0229 63.0758 54.3291 63.0101 54.6343 62.9372C54.9385 62.8633 55.2406 62.782 55.5395 62.6914C55.8395 62.6008 56.1364 62.5029 56.4312 62.3956C56.726 62.2883 57.0166 62.1737 57.3041 62.0508C57.5927 61.9279 57.877 61.7966 58.1572 61.6581C58.4385 61.5195 58.7145 61.3726 58.9874 61.2185C59.2593 61.0643 59.5281 60.9029 59.7916 60.7331C60.0552 60.5643 60.3135 60.3883 60.5666 60.2049C60.8208 60.0216 61.0687 59.831 61.3124 59.6331C61.5552 59.4362 61.7927 59.232 62.0249 59.0216C62.2562 58.8112 62.4822 58.5945 62.702 58.3716C62.9218 58.1487 63.1354 57.9195 63.3416 57.6851C63.5489 57.4497 63.7499 57.2091 63.9427 56.9633C64.1364 56.7174 64.3239 56.4664 64.5031 56.2091C64.6833 55.9529 64.8552 55.6914 65.0208 55.4258C65.1854 55.1601 65.3427 54.8893 65.4937 54.6143C65.6437 54.3404 65.7854 54.0612 65.9208 53.7789C66.0552 53.4956 66.1822 53.2101 66.2999 52.9195C66.4187 52.6299 66.5302 52.3372 66.6322 52.0414C66.7343 51.7456 66.8291 51.4477 66.9145 51.1466C67.001 50.8445 67.0781 50.5414 67.1468 50.2362C67.2156 49.931 67.276 49.6237 67.3281 49.3154C67.3802 49.006 67.4239 48.6966 67.4583 48.3851C67.4927 48.0737 67.5187 47.7622 67.5364 47.4497C67.5541 47.1372 67.5624 46.8237 67.5624 46.5112C67.5624 46.1893 67.5552 45.8695 67.5364 45.5518Z" stroke="#E6E6E6" stroke-width="2" mask="url(#path-2-inside-1_17_460)"/>
</g>
<path d="M50.6653 35.7676L50.6639 35.7676C49.8804 35.7687 49.1076 35.855 48.3442 36.0254L47.6613 36.1778L48.0267 36.7745L49.2589 38.7865L46.6631 52.3192L46.6102 52.5951L46.8184 52.7838L50.3298 55.9672L50.6656 56.2716L51.0015 55.9672L54.5129 52.7838L54.721 52.5952L54.6681 52.3193L52.0733 38.7864L53.3046 36.7744L53.6698 36.1776L52.9869 36.0254C52.2225 35.855 51.4488 35.7687 50.6653 35.7676Z" stroke="#66BC46"/>
<path d="M20.2893 69.2365V75.0698H18.6768V69.2365V68.9865H18.4268H16.7685V67.7573H22.1893V68.9865H20.5393H20.2893V69.2365Z" stroke="#E6E6E6" stroke-width="0.5"/>
<path d="M28.5795 71.3491V75.07H27.5374L27.2026 74.4072L27.1333 74.27H26.9795H26.9378H26.8184L26.7434 74.3628C26.4779 74.6912 26.2224 74.8988 25.9786 75.0079C25.7292 75.1163 25.3886 75.1783 24.9461 75.1783C24.4295 75.1783 24.0514 75.0254 23.781 74.743C23.5097 74.4588 23.3586 74.0459 23.3586 73.47C23.3586 72.8909 23.5545 72.4959 23.9232 72.237L23.9233 72.2369C24.3181 71.9591 24.9133 71.7877 25.7389 71.749L26.7492 71.7199L26.992 71.7129V71.47V71.3825C26.992 71.095 26.9213 70.8332 26.7359 70.6447C26.5497 70.4553 26.2899 70.3825 26.0045 70.3825C25.5676 70.3825 25.047 70.5128 24.451 70.7557L24.0435 69.8256C24.6698 69.5537 25.4485 69.4116 26.3878 69.4116C27.1249 69.4116 27.6591 69.595 28.024 69.926L28.0245 69.9264C28.3864 70.2528 28.5795 70.7157 28.5795 71.3491ZM27.0003 72.6158V72.3547L26.7395 72.366L26.2612 72.3868C25.8947 72.4002 25.5781 72.4745 25.3479 72.6436C25.1029 72.8236 24.9878 73.0868 24.9878 73.395C24.9878 73.6239 25.0493 73.8406 25.2156 73.9964C25.3787 74.1493 25.6004 74.2033 25.8336 74.2033C26.1436 74.2033 26.4198 74.1027 26.6465 73.8976C26.8828 73.6869 27.0003 73.4092 27.0003 73.0866V72.6158Z" stroke="#E6E6E6" stroke-width="0.5"/>
<path d="M32.0889 75.0698H30.5014V67.2573H32.0889V75.0698Z" stroke="#E6E6E6" stroke-width="0.5"/>
<path d="M34.5366 74.4437L34.5368 74.4438C35.0358 74.9234 35.7476 75.1783 36.7094 75.1783C37.1844 75.1783 37.5844 75.1456 37.9123 75.0828L37.9147 75.0823L37.9147 75.0823C38.1918 75.032 38.4619 74.9465 38.7261 74.8256V73.8624C38.4851 73.9576 38.2533 74.0309 38.0308 74.0806C37.7016 74.155 37.3455 74.1908 36.9636 74.1908C36.5219 74.1908 36.1417 74.0855 35.8507 73.8465C35.5554 73.6039 35.4048 73.2689 35.3888 72.8674L35.3784 72.6075H35.6386H39.1219V71.9283C39.1219 71.0813 38.8872 70.4697 38.4533 70.0548L34.5366 74.4437ZM34.5366 74.4437C34.0404 73.9678 33.7761 73.2763 33.7761 72.3325C33.7761 71.3511 34.0237 70.6382 34.4825 70.1545L34.4828 70.1541M34.5366 74.4437L34.4828 70.1541M34.4828 70.1541C34.9402 69.67 35.6042 69.4116 36.5136 69.4116M34.4828 70.1541L36.5136 69.4116M36.5136 69.4116C37.3809 69.4116 38.0153 69.6371 38.4533 70.0548L36.5136 69.4116ZM35.4311 71.5204L35.4089 71.7908H35.6802H37.4761H37.7333L37.726 71.5336C37.7163 71.1969 37.6184 70.9032 37.4104 70.6761L37.2261 70.8449L37.4114 70.6772C37.1993 70.4427 36.9157 70.3325 36.5886 70.3325C36.2852 70.3325 36.0177 70.4315 35.8015 70.6328L35.9719 70.8158L35.8028 70.6317C35.5726 70.8431 35.461 71.1554 35.4311 71.5204Z" stroke="#E6E6E6" stroke-width="0.5"/>
<path d="M44.1988 71.1075L44.417 70.9856C44.2536 70.6929 43.9793 70.5491 43.6404 70.5491C43.2063 70.5491 42.8625 70.7317 42.6555 71.1022L42.6552 71.1027C42.4655 71.4442 42.3904 71.9822 42.3904 72.67V75.07H40.8029V69.5158H41.9505L42.1545 70.0984L42.213 70.2658H42.3904H42.5154H42.6545L42.7279 70.1476C42.8781 69.9054 43.0853 69.7239 43.3553 69.6022C43.6346 69.4773 43.9612 69.4116 44.3404 69.4116C44.9584 69.4116 45.4076 69.5899 45.7226 69.9181L45.7228 69.9183C46.0372 70.2451 46.2113 70.7211 46.2113 71.3825V75.07H44.6238V72.02C44.6238 71.6011 44.5643 71.2459 44.4164 70.9844L44.1988 71.1075ZM44.1988 71.1075C44.3154 71.3137 44.3738 71.6179 44.3738 72.02V75.07H42.6404V72.67C42.6404 71.9866 42.7175 71.5054 42.8738 71.2241C43.0321 70.9408 43.2873 70.7991 43.6404 70.7991C43.8988 70.7991 44.0842 70.9022 44.1988 71.1075ZM46.2113 75.32H44.6238H46.2113Z" stroke="#E6E6E6" stroke-width="0.5"/>
<path d="M50.8503 74.0241C51.0793 74.0241 51.3329 73.984 51.6087 73.9075V74.9226C51.3965 75.0048 51.1955 75.0651 51.0047 75.1041C50.7684 75.1521 50.4877 75.1782 50.1587 75.1782C49.4932 75.1782 49.0711 75.0144 48.8279 74.7444C48.5782 74.4659 48.4295 74.01 48.4295 73.3282V70.8324V70.5824H48.1795H47.6962V70.1116L48.5199 69.528L48.5776 69.4872L48.6053 69.4221L49.0822 68.3032H50.0337V69.2657V69.5157H50.2837H51.517V70.5824H50.2837H50.0337V70.8324V73.1866C50.0337 73.4186 50.0894 73.6391 50.2452 73.8007C50.4027 73.964 50.6205 74.0241 50.8503 74.0241Z" stroke="#E6E6E6" stroke-width="0.5"/>
<path d="M57.5658 74.1042L57.566 74.1039C57.7843 73.7704 57.896 73.3875 57.896 72.9492C57.896 72.4649 57.7761 72.0832 57.5544 71.7868C57.3301 71.4894 56.9083 71.1859 56.2515 70.8896L56.2503 70.889C55.8971 70.7273 55.61 70.5899 55.3901 70.4771C55.175 70.3668 55.0102 70.273 54.9118 70.1986L54.9102 70.1973L54.9102 70.1973C54.7108 70.0438 54.5752 69.8399 54.5752 69.5867C54.5752 69.3577 54.6818 69.1701 54.8606 69.0341C55.0508 68.8872 55.3161 68.8367 55.6085 68.8367C56.1253 68.8367 56.7116 68.9808 57.3632 69.2539L57.8239 68.0917C57.0894 67.7923 56.3741 67.645 55.6752 67.645C54.7931 67.645 54.1324 67.8396 53.665 68.1974C53.21 68.5484 52.9793 69.0332 52.9793 69.6825C52.9793 70.0435 53.0358 70.3407 53.1414 70.5815C53.2501 70.826 53.415 71.0463 53.642 71.2426C53.8716 71.4374 54.2296 71.6497 54.7279 71.8754C54.7281 71.8755 54.7282 71.8756 54.7283 71.8756L54.6252 72.1034C55.1887 72.3565 55.5356 72.5242 55.6668 72.6075L57.5658 74.1042ZM57.5658 74.1042C57.3506 74.4339 57.0361 74.6964 56.6102 74.8878L56.6098 74.888C56.1872 75.0788 55.682 75.1784 55.0877 75.1784C54.5756 75.1784 54.1564 75.1426 53.8264 75.0753C53.5411 75.0141 53.2407 74.9153 52.9252 74.7761V73.4504C53.23 73.5852 53.5433 73.6958 53.8643 73.7823L53.8657 73.7826C54.3177 73.9016 54.7393 73.9617 55.1293 73.9617C55.4611 73.9617 55.7563 73.9064 55.9659 73.7499C56.1712 73.5982 56.2877 73.3865 56.2877 73.1284C56.2877 72.9734 56.2436 72.8292 56.1533 72.7034L56.1533 72.7034L56.1524 72.7021C56.0674 72.5853 55.9427 72.4851 55.8 72.3959L57.5658 74.1042Z" stroke="#E6E6E6" stroke-width="0.5"/>
<path d="M59.9758 70.1676L59.9753 70.1681C59.482 70.6586 59.2198 71.3652 59.2198 72.3241C59.2198 73.283 59.464 73.9811 59.9172 74.4555C60.3659 74.9243 61.0429 75.1783 61.9907 75.1783C62.6518 75.1783 63.2111 75.0336 63.6782 74.7533V73.6591C63.1947 73.896 62.6899 74.0158 62.1657 74.0158C61.745 74.0158 61.394 73.8696 61.1584 73.551C60.9333 73.2465 60.8407 72.82 60.8407 72.3116C60.8407 71.8037 60.938 71.3738 61.1654 71.051L59.9758 70.1676ZM59.9758 70.1676C60.4681 69.6752 61.1821 69.4116 62.1532 69.4116C62.7389 69.4116 63.2929 69.524 63.8167 69.748L63.3852 70.834C63.2144 70.7664 63.0522 70.7084 62.8985 70.6605L62.8982 70.6604M59.9758 70.1676L62.8982 70.6604M62.8982 70.6604C62.6588 70.586 62.4108 70.5491 62.1532 70.5491M62.8982 70.6604L62.1532 70.5491M62.1532 70.5491C61.7395 70.5491 61.4 70.7177 61.1655 71.0509L62.1532 70.5491Z" stroke="#E6E6E6" stroke-width="0.5"/>
<path d="M66.9772 70.9899C66.8086 71.3057 66.7395 71.7458 66.7395 72.2783C66.7395 72.8153 66.8088 73.259 66.9749 73.5831C67.063 73.7567 67.1874 73.8972 67.3509 73.9925C67.5133 74.0871 67.6992 74.1283 67.8978 74.1283C68.0952 74.1283 68.28 74.087 68.441 73.9915C68.603 73.8954 68.7248 73.7538 68.8099 73.5799C68.968 73.2573 69.0353 72.8154 69.0353 72.2783C69.0353 71.7476 68.966 71.3118 68.8037 70.9977C68.7175 70.8277 68.5942 70.6906 68.4321 70.5979C68.2712 70.5058 68.0867 70.4658 67.8895 70.4658C67.694 70.4658 67.5113 70.5057 67.3512 70.5965C67.19 70.688 67.0661 70.8229 66.9772 70.9899ZM66.9772 70.9899C66.9772 70.9898 66.9773 70.9898 66.9773 70.9897L67.1978 71.1074L66.9771 70.99C66.9771 70.99 66.9772 70.9899 66.9772 70.9899ZM69.93 74.4259L69.93 74.4259C69.4571 74.9183 68.7854 75.1783 67.877 75.1783C67.0127 75.1783 66.3502 74.9143 65.8617 74.4054C65.3745 73.8956 65.1187 73.1963 65.1187 72.2783C65.1187 71.3383 65.372 70.6429 65.8473 70.1573L65.8476 70.157C66.3225 69.67 66.998 69.4116 67.9103 69.4116C68.4672 69.4116 68.9495 69.5305 69.3641 69.7594C69.7755 69.9883 70.0923 70.3146 70.3182 70.7446L70.3182 70.7446C70.543 71.1725 70.6603 71.6812 70.6603 72.2783C70.6603 73.2248 70.4068 73.9296 69.93 74.4259Z" stroke="#E6E6E6" stroke-width="0.5"/>
<path d="M72.3456 73.2115V69.5156H73.9331V72.574C73.9331 72.9843 73.9891 73.3336 74.1308 73.5905L74.1308 73.5905L74.1315 73.5918C74.2945 73.8834 74.5685 74.024 74.9039 74.024C75.1154 74.024 75.3122 73.9827 75.4844 73.8882C75.6581 73.793 75.7929 73.6512 75.89 73.4729C76.0774 73.1305 76.1539 72.5963 76.1539 71.9156V69.5156H77.7414V75.0698H76.5941L76.39 74.4834L76.3316 74.3156H76.1539H76.0331H75.895L75.8215 74.4325C75.6734 74.6678 75.4661 74.8505 75.1925 74.9815C74.9208 75.1095 74.5931 75.1781 74.2039 75.1781C73.5873 75.1781 73.141 75.0016 72.8308 74.6765C72.5177 74.3476 72.3456 73.8711 72.3456 73.2115Z" stroke="#E6E6E6" stroke-width="0.5"/>
<path d="M82.4013 74.0241C82.6303 74.0241 82.8838 73.984 83.1596 73.9075V74.9226C82.9475 75.0048 82.7465 75.0651 82.5557 75.1041C82.3194 75.1521 82.0386 75.1782 81.7096 75.1782C81.0441 75.1782 80.622 75.0144 80.3789 74.7444C80.1291 74.4659 79.9805 74.01 79.9805 73.3282V70.8324V70.5824H79.7305H79.2471V70.1116L80.0708 69.528L80.1285 69.4872L80.1563 69.4221L80.6332 68.3032H81.5846V69.2657V69.5157H81.8346H83.068V70.5824H81.8346H81.5846V70.8324V73.1866C81.5846 73.4186 81.6404 73.6391 81.7962 73.8007C81.9537 73.964 82.1714 74.0241 82.4013 74.0241Z" stroke="#E6E6E6" stroke-width="0.5"/>
</svg>
