<svg width="100" height="100" viewBox="0 0 100 100" fill="none" xmlns="http://www.w3.org/2000/svg">
<mask id="mask0_17_460" style="mask-type:luminance" maskUnits="userSpaceOnUse" x="33" y="16" width="35" height="48">
<path d="M33.6 16.7998H67.6062V63.4665H33.6V16.7998Z" fill="white"/>
</mask>
<g mask="url(#mask0_17_460)">
<mask id="path-2-inside-1_17_460" fill="white">
<path d="M67.5364 45.5518C67.527 45.3633 67.4989 45.1768 67.4531 44.9935C67.4062 44.8112 67.3427 44.6341 67.2614 44.4633C67.1802 44.2924 67.0833 44.131 66.9708 43.9799C66.8572 43.8279 66.7302 43.6893 66.5895 43.5633C66.4499 43.4362 66.2979 43.3247 66.1354 43.2289C65.9729 43.132 65.802 43.0529 65.6239 42.9904C65.4458 42.9279 65.2624 42.8831 65.076 42.857C64.8885 42.8299 64.701 42.8226 64.5114 42.8331C64.3229 42.8435 64.1374 42.8726 63.9541 42.9206C63.7718 42.9674 63.5947 43.0331 63.4249 43.1154C63.2552 43.1976 63.0947 43.2956 62.9437 43.4101C62.7927 43.5247 62.6552 43.6518 62.5302 43.7935C62.4041 43.9351 62.2937 44.0872 62.1989 44.2508C62.1041 44.4143 62.026 44.5851 61.9645 44.7643C61.9031 44.9424 61.8604 45.1258 61.8343 45.3133C61.8093 45.5008 61.8031 45.6883 61.8156 45.8779C61.827 46.0862 61.8322 46.2987 61.8322 46.5112C61.8322 46.731 61.826 46.9497 61.8135 47.1695C61.801 47.3893 61.7812 47.6081 61.7552 47.8258C61.7302 48.0445 61.6979 48.2612 61.6593 48.4779C61.6208 48.6945 61.576 48.9091 61.5249 49.1226C61.4739 49.3362 61.4156 49.5487 61.352 49.7591C61.2885 49.9685 61.2187 50.1768 61.1427 50.3831C61.0666 50.5893 60.9843 50.7935 60.8968 50.9945C60.8083 51.1956 60.7145 51.3945 60.6145 51.5904C60.5145 51.7862 60.4093 51.9789 60.2979 52.1685C60.1874 52.3581 60.0708 52.5435 59.9479 52.7268C59.826 52.9091 59.6989 53.0883 59.5656 53.2633C59.4333 53.4383 59.2958 53.6091 59.1531 53.7768C59.0104 53.9435 58.8624 54.106 58.7104 54.2643C58.5572 54.4226 58.401 54.5758 58.2395 54.7247C58.0781 54.8747 57.9124 55.0185 57.7416 55.1581C57.5718 55.2966 57.3979 55.431 57.2197 55.5601C57.0427 55.6893 56.8604 55.8122 56.676 55.931C56.4906 56.0487 56.302 56.1622 56.1104 56.2685C55.9177 56.3758 55.7229 56.4779 55.5249 56.5726C55.3281 56.6685 55.127 56.7581 54.9239 56.8424C54.7208 56.9258 54.5156 57.0039 54.3072 57.0758C54.0999 57.1466 53.8906 57.2122 53.6791 57.2716C53.4677 57.331 53.2541 57.3841 53.0395 57.431C52.8249 57.4779 52.6083 57.5174 52.3916 57.5518C52.1749 57.5862 51.9562 57.6133 51.7374 57.6341C51.5197 57.6549 51.2999 57.6695 51.0802 57.6779C50.8614 57.6862 50.6416 57.6883 50.4218 57.6831C50.202 57.6789 49.9822 57.6674 49.7635 57.6497C49.5447 57.632 49.326 57.607 49.1083 57.5768C48.8906 57.5466 48.6749 57.5091 48.4593 57.4654C48.2437 57.4226 48.0302 57.3726 47.8177 57.3164C47.6052 57.2601 47.3947 57.1976 47.1854 57.1299C46.977 57.0612 46.7697 56.9862 46.5656 56.906C46.3614 56.8247 46.1593 56.7383 45.9604 56.6456C45.7614 56.5539 45.5645 56.4549 45.3708 56.3508C45.1781 56.2466 44.9874 56.1372 44.801 56.0216C44.6135 55.906 44.4302 55.7851 44.2499 55.6591C44.0708 55.5331 43.8947 55.4008 43.7229 55.2643C43.5499 55.1279 43.3822 54.9862 43.2187 54.8393C43.0552 54.6935 42.8958 54.5424 42.7406 54.3862C42.5864 54.2299 42.4364 54.0695 42.2906 53.9049C42.1458 53.7404 42.0052 53.5716 41.8697 53.3977C41.7343 53.2247 41.6041 53.0477 41.4791 52.8674C41.3541 52.6862 41.2354 52.5018 41.1208 52.3143C41.0072 52.1268 40.8989 51.9351 40.7958 51.7414C40.6927 51.5477 40.5958 51.3497 40.5052 51.1497C40.4135 50.9497 40.3281 50.7476 40.2489 50.5424C40.1697 50.3372 40.0968 50.131 40.0302 49.9216C39.9635 49.7122 39.9031 49.5008 39.8479 49.2883C39.7937 49.0747 39.7458 48.8612 39.7041 48.6456C39.6614 48.4299 39.626 48.2122 39.5979 47.9945C39.5687 47.7768 39.5458 47.5591 39.5291 47.3393C39.5135 47.1206 39.5041 46.9008 39.501 46.681C39.4979 46.4612 39.501 46.2424 39.5104 46.0226C39.5208 45.8029 39.5364 45.5841 39.5593 45.3654C39.5822 45.1466 39.6114 44.9289 39.6468 44.7122C39.6822 44.4956 39.7239 44.2799 39.7729 44.0654C39.8208 43.8508 39.8749 43.6383 39.9364 43.4268C39.9968 43.2164 40.0635 43.007 40.1374 42.7997C40.2104 42.5924 40.2895 42.3872 40.3749 42.1851C40.4604 41.9831 40.551 41.7831 40.6489 41.5862C40.7458 41.3883 40.8479 41.1945 40.9572 41.0039C41.0656 40.8122 41.1791 40.6247 41.2989 40.4404C41.4187 40.256 41.5437 40.0758 41.6739 39.8987C41.8041 39.7216 41.9395 39.5487 42.0802 39.3799C42.2208 39.2112 42.3656 39.0466 42.5166 38.8862C42.6666 38.7258 42.8208 38.5695 42.9802 38.4185C43.1406 38.2674 43.3041 38.1206 43.4718 37.9789C43.6395 37.8372 43.8124 37.7008 43.9885 37.5695C44.1645 37.4383 44.3437 37.3122 44.5281 37.1914C44.7114 37.0706 44.8979 36.9549 45.0885 36.8456C45.2791 36.7362 45.4718 36.632 45.6687 36.5331C45.8656 36.4351 46.0645 36.3424 46.2666 36.256C46.4687 36.1695 46.6729 36.0893 46.8791 36.0143C47.0864 35.9404 47.2947 35.8716 47.5052 35.8091C47.7166 35.7476 47.9291 35.6914 48.1427 35.6414C48.3572 35.5924 48.5718 35.5487 48.7885 35.5122C49.0052 35.4747 49.2229 35.4445 49.4416 35.4206C49.6593 35.3966 49.8791 35.3789 50.0979 35.3674C50.3177 35.356 50.5374 35.3518 50.7572 35.3529C50.977 35.3549 51.1958 35.3633 51.4156 35.3779C51.6343 35.3924 51.8531 35.4143 52.0708 35.4414C52.2895 35.4695 52.5062 35.5039 52.7218 35.5435C52.9385 35.5841 53.1531 35.631 53.3656 35.6841C53.5791 35.7372 53.7906 35.7966 53.9999 35.8622C54.2104 35.9279 54.4177 35.9997 54.6229 36.0779C54.8281 36.156 55.0312 36.2393 55.2322 36.3289C55.4322 36.4195 55.6302 36.5143 55.8249 36.6164C56.0197 36.7174 56.2114 36.8247 56.3999 36.9383C56.5885 37.0508 56.7739 37.1685 56.9552 37.2924C57.1374 37.4164 57.3145 37.5456 57.4885 37.6799C57.6624 37.8143 57.8322 37.9529 57.9979 38.0976C58.1635 38.2414 58.3249 38.3904 58.4822 38.5445C58.6395 38.6987 58.7916 38.857 58.9385 39.0195C59.0864 39.182 59.2291 39.3497 59.3666 39.5206C59.5041 39.6914 59.6374 39.8674 59.7645 40.0456C59.8739 40.1987 59.9968 40.3404 60.1333 40.4695C60.2708 40.5987 60.4187 40.7122 60.5781 40.8122C60.7374 40.9122 60.9052 40.9956 61.0812 41.0622C61.2562 41.1289 61.4374 41.1779 61.6229 41.2091C61.8083 41.2404 61.9947 41.2539 62.1833 41.2476C62.3708 41.2424 62.5562 41.2185 62.7395 41.1768C62.9229 41.1341 63.101 41.0747 63.2718 40.9976C63.4437 40.9206 63.6062 40.8279 63.7593 40.7185C63.9124 40.6101 64.0541 40.4872 64.1833 40.3497C64.3114 40.2133 64.426 40.0654 64.526 39.906C64.626 39.7466 64.7093 39.5789 64.776 39.4029C64.8437 39.2268 64.8927 39.0466 64.9239 38.8612C64.9552 38.6758 64.9677 38.4893 64.9624 38.3008C64.9572 38.1133 64.9333 37.9279 64.8916 37.7445C64.8489 37.5612 64.7895 37.3831 64.7124 37.2112C64.6364 37.0404 64.5427 36.8779 64.4343 36.7247C63.8333 35.881 63.1604 35.0997 62.4166 34.381C61.6729 33.6612 60.8687 33.0154 60.0062 32.4424C59.1437 31.8706 58.2364 31.381 57.2843 30.9747C56.3322 30.5685 55.351 30.2529 54.3406 30.0258L58.9979 20.5779C59.0718 20.4279 59.1302 20.2727 59.1739 20.1102C59.2166 19.9487 59.2437 19.7852 59.2552 19.6174C59.2666 19.4508 59.2604 19.2841 59.2395 19.1185C59.2177 18.9529 59.1791 18.7904 59.126 18.632C59.0718 18.4737 59.0031 18.3216 58.9197 18.1768C58.8364 18.032 58.7395 17.8966 58.6291 17.7706C58.5187 17.6445 58.3968 17.531 58.2645 17.4289C58.1322 17.3268 57.9906 17.2393 57.8406 17.1654C57.6906 17.0914 57.5343 17.032 57.3729 16.9893C57.2114 16.9456 57.0468 16.9185 56.8802 16.907C56.7135 16.8966 56.5468 16.9018 56.3812 16.9237C56.2145 16.9456 56.0531 16.9831 55.8947 17.0372C55.7354 17.0904 55.5843 17.1591 55.4395 17.2424C55.2947 17.3268 55.1593 17.4237 55.0333 17.5331C54.9072 17.6435 54.7937 17.7654 54.6916 17.8977C54.5895 18.031 54.502 18.1716 54.427 18.3227L47.7499 29.8758L47.6468 29.8945L49.9322 20.9612C49.9864 20.7987 50.0239 20.6331 50.0437 20.4633C50.0645 20.2935 50.0677 20.1227 50.0531 19.9518C50.0395 19.782 50.0083 19.6143 49.9604 19.4497C49.9124 19.2852 49.8489 19.1279 49.7697 18.9758C49.6895 18.8247 49.5958 18.6831 49.4874 18.5497C49.3802 18.4174 49.2593 18.2977 49.127 18.1893C48.9947 18.081 48.852 17.9862 48.701 17.907C48.5499 17.8268 48.3916 17.7633 48.227 17.7154C48.0635 17.6674 47.8958 17.6362 47.7249 17.6227C47.5552 17.6081 47.3843 17.6112 47.2145 17.631C47.0447 17.6518 46.8781 17.6883 46.7156 17.7424C46.5531 17.7956 46.3979 17.8654 46.2499 17.9497C46.101 18.0352 45.9624 18.1341 45.8343 18.2466C45.7052 18.3602 45.5895 18.4841 45.4854 18.6206C45.3822 18.757 45.2937 18.9018 45.2197 19.056C45.1447 19.2102 45.0874 19.3706 45.0447 19.5362L40.7947 32.5299V23.6727C40.8041 23.5029 40.7958 23.3341 40.7718 23.1664C40.7468 22.9977 40.7062 22.8341 40.6489 22.6747C40.5916 22.5143 40.5187 22.3622 40.4312 22.2174C40.3427 22.0716 40.2416 21.9362 40.127 21.8112C40.0114 21.6872 39.8854 21.5747 39.7489 21.4747C39.6114 21.3747 39.4656 21.2893 39.3114 21.2185C39.1562 21.1487 38.9968 21.0935 38.8312 21.0549C38.6666 21.0164 38.4989 20.9945 38.3291 20.9893C38.1593 20.9841 37.9906 20.9956 37.8239 21.0237C37.6562 21.0529 37.4937 21.0977 37.3354 21.1581C37.177 21.2195 37.026 21.2956 36.8833 21.3872C36.7395 21.4779 36.6072 21.582 36.4843 21.6997C36.3624 21.8174 36.2531 21.9466 36.1562 22.0862C36.0593 22.2258 35.9781 22.3737 35.9114 22.5289C35.8437 22.6852 35.7927 22.8466 35.7583 23.0122C35.7229 23.1789 35.7052 23.3466 35.7041 23.5164L35.2062 39.6966C35.0791 39.9831 34.9614 40.2726 34.851 40.5654C34.7406 40.8591 34.6385 41.1549 34.5447 41.4529C34.451 41.7518 34.3656 42.0529 34.2885 42.357C34.2114 42.6601 34.1437 42.9654 34.0833 43.2726C34.0229 43.5799 33.9718 43.8893 33.9291 44.1987C33.8864 44.5091 33.852 44.8206 33.826 45.132C33.801 45.4445 33.7833 45.757 33.7749 46.0695C33.7677 46.3831 33.7677 46.6956 33.777 47.0091C33.7864 47.3216 33.8041 47.6341 33.8302 47.9466C33.8572 48.2581 33.8927 48.5695 33.9364 48.8789C33.9802 49.1893 34.0322 49.4976 34.0937 49.8049C34.1541 50.1122 34.2239 50.4174 34.302 50.7206C34.3802 51.0237 34.4656 51.3247 34.5604 51.6227C34.6552 51.9216 34.7583 52.2174 34.8697 52.5102C34.9802 52.8029 35.0999 53.0924 35.227 53.3779C35.3541 53.6643 35.4895 53.9466 35.6322 54.2247C35.7749 54.5039 35.926 54.7779 36.0833 55.0487C36.2416 55.3185 36.4072 55.5841 36.5802 55.8456C36.7531 56.106 36.9333 56.3622 37.1208 56.6133C37.3072 56.8643 37.502 57.1101 37.702 57.3497C37.9031 57.5904 38.1104 57.8247 38.3249 58.0539C38.5385 58.282 38.7583 58.5049 38.9843 58.7216C39.2104 58.9372 39.4427 59.1476 39.6812 59.3508C39.9187 59.5549 40.1624 59.7518 40.4104 59.9414C40.6593 60.132 40.9135 60.3143 41.1729 60.4904C41.4312 60.6664 41.6958 60.8351 41.9635 60.9966C42.2322 61.1581 42.5052 61.3112 42.7812 61.457C43.0583 61.6039 43.3395 61.7414 43.6239 61.8726C43.9083 62.0029 44.1968 62.1247 44.4885 62.2393C44.7791 62.3539 45.0739 62.4601 45.3708 62.5591C45.6687 62.657 45.9687 62.7466 46.2708 62.8279C46.5729 62.9091 46.877 62.982 47.1833 63.0466C47.4906 63.1112 47.7979 63.1674 48.1072 63.2143C48.4166 63.2622 48.7281 63.3008 49.0395 63.331C49.351 63.3612 49.6635 63.3831 49.976 63.3956C50.2885 63.4081 50.602 63.4122 50.9145 63.4081C51.2281 63.4029 51.5406 63.3904 51.8531 63.3674C52.1656 63.3456 52.477 63.3154 52.7874 63.2758C53.0979 63.2362 53.4072 63.1883 53.7156 63.132C54.0229 63.0758 54.3291 63.0101 54.6343 62.9372C54.9385 62.8633 55.2406 62.782 55.5395 62.6914C55.8395 62.6008 56.1364 62.5029 56.4312 62.3956C56.726 62.2883 57.0166 62.1737 57.3041 62.0508C57.5927 61.9279 57.877 61.7966 58.1572 61.6581C58.4385 61.5195 58.7145 61.3726 58.9874 61.2185C59.2593 61.0643 59.5281 60.9029 59.7916 60.7331C60.0552 60.5643 60.3135 60.3883 60.5666 60.2049C60.8208 60.0216 61.0687 59.831 61.3124 59.6331C61.5552 59.4362 61.7927 59.232 62.0249 59.0216C62.2562 58.8112 62.4822 58.5945 62.702 58.3716C62.9218 58.1487 63.1354 57.9195 63.3416 57.6851C63.5489 57.4497 63.7499 57.2091 63.9427 56.9633C64.1364 56.7174 64.3239 56.4664 64.5031 56.2091C64.6833 55.9529 64.8552 55.6914 65.0208 55.4258C65.1854 55.1601 65.3427 54.8893 65.4937 54.6143C65.6437 54.3404 65.7854 54.0612 65.9208 53.7789C66.0552 53.4956 66.1822 53.2101 66.2999 52.9195C66.4187 52.6299 66.5302 52.3372 66.6322 52.0414C66.7343 51.7456 66.8291 51.4477 66.9145 51.1466C67.001 50.8445 67.0781 50.5414 67.1468 50.2362C67.2156 49.931 67.276 49.6237 67.3281 49.3154C67.3802 49.006 67.4239 48.6966 67.4583 48.3851C67.4927 48.0737 67.5187 47.7622 67.5364 47.4497C67.5541 47.1372 67.5624 46.8237 67.5624 46.5112C67.5624 46.1893 67.5552 45.8695 67.5364 45.5518Z"/>
</mask>
<path d="M67.5364 45.5518C67.527 45.3633 67.4989 45.1768 67.4531 44.9935C67.4062 44.8112 67.3427 44.6341 67.2614 44.4633C67.1802 44.2924 67.0833 44.131 66.9708 43.9799C66.8572 43.8279 66.7302 43.6893 66.5895 43.5633C66.4499 43.4362 66.2979 43.3247 66.1354 43.2289C65.9729 43.132 65.802 43.0529 65.6239 42.9904C65.4458 42.9279 65.2624 42.8831 65.076 42.857C64.8885 42.8299 64.701 42.8226 64.5114 42.8331C64.3229 42.8435 64.1374 42.8726 63.9541 42.9206C63.7718 42.9674 63.5947 43.0331 63.4249 43.1154C63.2552 43.1976 63.0947 43.2956 62.9437 43.4101C62.7927 43.5247 62.6552 43.6518 62.5302 43.7935C62.4041 43.9351 62.2937 44.0872 62.1989 44.2508C62.1041 44.4143 62.026 44.5851 61.9645 44.7643C61.9031 44.9424 61.8604 45.1258 61.8343 45.3133C61.8093 45.5008 61.8031 45.6883 61.8156 45.8779C61.827 46.0862 61.8322 46.2987 61.8322 46.5112C61.8322 46.731 61.826 46.9497 61.8135 47.1695C61.801 47.3893 61.7812 47.6081 61.7552 47.8258C61.7302 48.0445 61.6979 48.2612 61.6593 48.4779C61.6208 48.6945 61.576 48.9091 61.5249 49.1226C61.4739 49.3362 61.4156 49.5487 61.352 49.7591C61.2885 49.9685 61.2187 50.1768 61.1427 50.3831C61.0666 50.5893 60.9843 50.7935 60.8968 50.9945C60.8083 51.1956 60.7145 51.3945 60.6145 51.5904C60.5145 51.7862 60.4093 51.9789 60.2979 52.1685C60.1874 52.3581 60.0708 52.5435 59.9479 52.7268C59.826 52.9091 59.6989 53.0883 59.5656 53.2633C59.4333 53.4383 59.2958 53.6091 59.1531 53.7768C59.0104 53.9435 58.8624 54.106 58.7104 54.2643C58.5572 54.4226 58.401 54.5758 58.2395 54.7247C58.0781 54.8747 57.9124 55.0185 57.7416 55.1581C57.5718 55.2966 57.3979 55.431 57.2197 55.5601C57.0427 55.6893 56.8604 55.8122 56.676 55.931C56.4906 56.0487 56.302 56.1622 56.1104 56.2685C55.9177 56.3758 55.7229 56.4779 55.5249 56.5726C55.3281 56.6685 55.127 56.7581 54.9239 56.8424C54.7208 56.9258 54.5156 57.0039 54.3072 57.0758C54.0999 57.1466 53.8906 57.2122 53.6791 57.2716C53.4677 57.331 53.2541 57.3841 53.0395 57.431C52.8249 57.4779 52.6083 57.5174 52.3916 57.5518C52.1749 57.5862 51.9562 57.6133 51.7374 57.6341C51.5197 57.6549 51.2999 57.6695 51.0802 57.6779C50.8614 57.6862 50.6416 57.6883 50.4218 57.6831C50.202 57.6789 49.9822 57.6674 49.7635 57.6497C49.5447 57.632 49.326 57.607 49.1083 57.5768C48.8906 57.5466 48.6749 57.5091 48.4593 57.4654C48.2437 57.4226 48.0302 57.3726 47.8177 57.3164C47.6052 57.2601 47.3947 57.1976 47.1854 57.1299C46.977 57.0612 46.7697 56.9862 46.5656 56.906C46.3614 56.8247 46.1593 56.7383 45.9604 56.6456C45.7614 56.5539 45.5645 56.4549 45.3708 56.3508C45.1781 56.2466 44.9874 56.1372 44.801 56.0216C44.6135 55.906 44.4302 55.7851 44.2499 55.6591C44.0708 55.5331 43.8947 55.4008 43.7229 55.2643C43.5499 55.1279 43.3822 54.9862 43.2187 54.8393C43.0552 54.6935 42.8958 54.5424 42.7406 54.3862C42.5864 54.2299 42.4364 54.0695 42.2906 53.9049C42.1458 53.7404 42.0052 53.5716 41.8697 53.3977C41.7343 53.2247 41.6041 53.0477 41.4791 52.8674C41.3541 52.6862 41.2354 52.5018 41.1208 52.3143C41.0072 52.1268 40.8989 51.9351 40.7958 51.7414C40.6927 51.5477 40.5958 51.3497 40.5052 51.1497C40.4135 50.9497 40.3281 50.7476 40.2489 50.5424C40.1697 50.3372 40.0968 50.131 40.0302 49.9216C39.9635 49.7122 39.9031 49.5008 39.8479 49.2883C39.7937 49.0747 39.7458 48.8612 39.7041 48.6456C39.6614 48.4299 39.626 48.2122 39.5979 47.9945C39.5687 47.7768 39.5458 47.5591 39.5291 47.3393C39.5135 47.1206 39.5041 46.9008 39.501 46.681C39.4979 46.4612 39.501 46.2424 39.5104 46.0226C39.5208 45.8029 39.5364 45.5841 39.5593 45.3654C39.5822 45.1466 39.6114 44.9289 39.6468 44.7122C39.6822 44.4956 39.7239 44.2799 39.7729 44.0654C39.8208 43.8508 39.8749 43.6383 39.9364 43.4268C39.9968 43.2164 40.0635 43.007 40.1374 42.7997C40.2104 42.5924 40.2895 42.3872 40.3749 42.1851C40.4604 41.9831 40.551 41.7831 40.6489 41.5862C40.7458 41.3883 40.8479 41.1945 40.9572 41.0039C41.0656 40.8122 41.1791 40.6247 41.2989 40.4404C41.4187 40.256 41.5437 40.0758 41.6739 39.8987C41.8041 39.7216 41.9395 39.5487 42.0802 39.3799C42.2208 39.2112 42.3656 39.0466 42.5166 38.8862C42.6666 38.7258 42.8208 38.5695 42.9802 38.4185C43.1406 38.2674 43.3041 38.1206 43.4718 37.9789C43.6395 37.8372 43.8124 37.7008 43.9885 37.5695C44.1645 37.4383 44.3437 37.3122 44.5281 37.1914C44.7114 37.0706 44.8979 36.9549 45.0885 36.8456C45.2791 36.7362 45.4718 36.632 45.6687 36.5331C45.8656 36.4351 46.0645 36.3424 46.2666 36.256C46.4687 36.1695 46.6729 36.0893 46.8791 36.0143C47.0864 35.9404 47.2947 35.8716 47.5052 35.8091C47.7166 35.7476 47.9291 35.6914 48.1427 35.6414C48.3572 35.5924 48.5718 35.5487 48.7885 35.5122C49.0052 35.4747 49.2229 35.4445 49.4416 35.4206C49.6593 35.3966 49.8791 35.3789 50.0979 35.3674C50.3177 35.356 50.5374 35.3518 50.7572 35.3529C50.977 35.3549 51.1958 35.3633 51.4156 35.3779C51.6343 35.3924 51.8531 35.4143 52.0708 35.4414C52.2895 35.4695 52.5062 35.5039 52.7218 35.5435C52.9385 35.5841 53.1531 35.631 53.3656 35.6841C53.5791 35.7372 53.7906 35.7966 53.9999 35.8622C54.2104 35.9279 54.4177 35.9997 54.6229 36.0779C54.8281 36.156 55.0312 36.2393 55.2322 36.3289C55.4322 36.4195 55.6302 36.5143 55.8249 36.6164C56.0197 36.7174 56.2114 36.8247 56.3999 36.9383C56.5885 37.0508 56.7739 37.1685 56.9552 37.2924C57.1374 37.4164 57.3145 37.5456 57.4885 37.6799C57.6624 37.8143 57.8322 37.9529 57.9979 38.0976C58.1635 38.2414 58.3249 38.3904 58.4822 38.5445C58.6395 38.6987 58.7916 38.857 58.9385 39.0195C59.0864 39.182 59.2291 39.3497 59.3666 39.5206C59.5041 39.6914 59.6374 39.8674 59.7645 40.0456C59.8739 40.1987 59.9968 40.3404 60.1333 40.4695C60.2708 40.5987 60.4187 40.7122 60.5781 40.8122C60.7374 40.9122 60.9052 40.9956 61.0812 41.0622C61.2562 41.1289 61.4374 41.1779 61.6229 41.2091C61.8083 41.2404 61.9947 41.2539 62.1833 41.2476C62.3708 41.2424 62.5562 41.2185 62.7395 41.1768C62.9229 41.1341 63.101 41.0747 63.2718 40.9976C63.4437 40.9206 63.6062 40.8279 63.7593 40.7185C63.9124 40.6101 64.0541 40.4872 64.1833 40.3497C64.3114 40.2133 64.426 40.0654 64.526 39.906C64.626 39.7466 64.7093 39.5789 64.776 39.4029C64.8437 39.2268 64.8927 39.0466 64.9239 38.8612C64.9552 38.6758 64.9677 38.4893 64.9624 38.3008C64.9572 38.1133 64.9333 37.9279 64.8916 37.7445C64.8489 37.5612 64.7895 37.3831 64.7124 37.2112C64.6364 37.0404 64.5427 36.8779 64.4343 36.7247C63.8333 35.881 63.1604 35.0997 62.4166 34.381C61.6729 33.6612 60.8687 33.0154 60.0062 32.4424C59.1437 31.8706 58.2364 31.381 57.2843 30.9747C56.3322 30.5685 55.351 30.2529 54.3406 30.0258L58.9979 20.5779C59.0718 20.4279 59.1302 20.2727 59.1739 20.1102C59.2166 19.9487 59.2437 19.7852 59.2552 19.6174C59.2666 19.4508 59.2604 19.2841 59.2395 19.1185C59.2177 18.9529 59.1791 18.7904 59.126 18.632C59.0718 18.4737 59.0031 18.3216 58.9197 18.1768C58.8364 18.032 58.7395 17.8966 58.6291 17.7706C58.5187 17.6445 58.3968 17.531 58.2645 17.4289C58.1322 17.3268 57.9906 17.2393 57.8406 17.1654C57.6906 17.0914 57.5343 17.032 57.3729 16.9893C57.2114 16.9456 57.0468 16.9185 56.8802 16.907C56.7135 16.8966 56.5468 16.9018 56.3812 16.9237C56.2145 16.9456 56.0531 16.9831 55.8947 17.0372C55.7354 17.0904 55.5843 17.1591 55.4395 17.2424C55.2947 17.3268 55.1593 17.4237 55.0333 17.5331C54.9072 17.6435 54.7937 17.7654 54.6916 17.8977C54.5895 18.031 54.502 18.1716 54.427 18.3227L47.7499 29.8758L47.6468 29.8945L49.9322 20.9612C49.9864 20.7987 50.0239 20.6331 50.0437 20.4633C50.0645 20.2935 50.0677 20.1227 50.0531 19.9518C50.0395 19.782 50.0083 19.6143 49.9604 19.4497C49.9124 19.2852 49.8489 19.1279 49.7697 18.9758C49.6895 18.8247 49.5958 18.6831 49.4874 18.5497C49.3802 18.4174 49.2593 18.2977 49.127 18.1893C48.9947 18.081 48.852 17.9862 48.701 17.907C48.5499 17.8268 48.3916 17.7633 48.227 17.7154C48.0635 17.6674 47.8958 17.6362 47.7249 17.6227C47.5552 17.6081 47.3843 17.6112 47.2145 17.631C47.0447 17.6518 46.8781 17.6883 46.7156 17.7424C46.5531 17.7956 46.3979 17.8654 46.2499 17.9497C46.101 18.0352 45.9624 18.1341 45.8343 18.2466C45.7052 18.3602 45.5895 18.4841 45.4854 18.6206C45.3822 18.757 45.2937 18.9018 45.2197 19.056C45.1447 19.2102 45.0874 19.3706 45.0447 19.5362L40.7947 32.5299V23.6727C40.8041 23.5029 40.7958 23.3341 40.7718 23.1664C40.7468 22.9977 40.7062 22.8341 40.6489 22.6747C40.5916 22.5143 40.5187 22.3622 40.4312 22.2174C40.3427 22.0716 40.2416 21.9362 40.127 21.8112C40.0114 21.6872 39.8854 21.5747 39.7489 21.4747C39.6114 21.3747 39.4656 21.2893 39.3114 21.2185C39.1562 21.1487 38.9968 21.0935 38.8312 21.0549C38.6666 21.0164 38.4989 20.9945 38.3291 20.9893C38.1593 20.9841 37.9906 20.9956 37.8239 21.0237C37.6562 21.0529 37.4937 21.0977 37.3354 21.1581C37.177 21.2195 37.026 21.2956 36.8833 21.3872C36.7395 21.4779 36.6072 21.582 36.4843 21.6997C36.3624 21.8174 36.2531 21.9466 36.1562 22.0862C36.0593 22.2258 35.9781 22.3737 35.9114 22.5289C35.8437 22.6852 35.7927 22.8466 35.7583 23.0122C35.7229 23.1789 35.7052 23.3466 35.7041 23.5164L35.2062 39.6966C35.0791 39.9831 34.9614 40.2726 34.851 40.5654C34.7406 40.8591 34.6385 41.1549 34.5447 41.4529C34.451 41.7518 34.3656 42.0529 34.2885 42.357C34.2114 42.6601 34.1437 42.9654 34.0833 43.2726C34.0229 43.5799 33.9718 43.8893 33.9291 44.1987C33.8864 44.5091 33.852 44.8206 33.826 45.132C33.801 45.4445 33.7833 45.757 33.7749 46.0695C33.7677 46.3831 33.7677 46.6956 33.777 47.0091C33.7864 47.3216 33.8041 47.6341 33.8302 47.9466C33.8572 48.2581 33.8927 48.5695 33.9364 48.8789C33.9802 49.1893 34.0322 49.4976 34.0937 49.8049C34.1541 50.1122 34.2239 50.4174 34.302 50.7206C34.3802 51.0237 34.4656 51.3247 34.5604 51.6227C34.6552 51.9216 34.7583 52.2174 34.8697 52.5102C34.9802 52.8029 35.0999 53.0924 35.227 53.3779C35.3541 53.6643 35.4895 53.9466 35.6322 54.2247C35.7749 54.5039 35.926 54.7779 36.0833 55.0487C36.2416 55.3185 36.4072 55.5841 36.5802 55.8456C36.7531 56.106 36.9333 56.3622 37.1208 56.6133C37.3072 56.8643 37.502 57.1101 37.702 57.3497C37.9031 57.5904 38.1104 57.8247 38.3249 58.0539C38.5385 58.282 38.7583 58.5049 38.9843 58.7216C39.2104 58.9372 39.4427 59.1476 39.6812 59.3508C39.9187 59.5549 40.1624 59.7518 40.4104 59.9414C40.6593 60.132 40.9135 60.3143 41.1729 60.4904C41.4312 60.6664 41.6958 60.8351 41.9635 60.9966C42.2322 61.1581 42.5052 61.3112 42.7812 61.457C43.0583 61.6039 43.3395 61.7414 43.6239 61.8726C43.9083 62.0029 44.1968 62.1247 44.4885 62.2393C44.7791 62.3539 45.0739 62.4601 45.3708 62.5591C45.6687 62.657 45.9687 62.7466 46.2708 62.8279C46.5729 62.9091 46.877 62.982 47.1833 63.0466C47.4906 63.1112 47.7979 63.1674 48.1072 63.2143C48.4166 63.2622 48.7281 63.3008 49.0395 63.331C49.351 63.3612 49.6635 63.3831 49.976 63.3956C50.2885 63.4081 50.602 63.4122 50.9145 63.4081C51.2281 63.4029 51.5406 63.3904 51.8531 63.3674C52.1656 63.3456 52.477 63.3154 52.7874 63.2758C53.0979 63.2362 53.4072 63.1883 53.7156 63.132C54.0229 63.0758 54.3291 63.0101 54.6343 62.9372C54.9385 62.8633 55.2406 62.782 55.5395 62.6914C55.8395 62.6008 56.1364 62.5029 56.4312 62.3956C56.726 62.2883 57.0166 62.1737 57.3041 62.0508C57.5927 61.9279 57.877 61.7966 58.1572 61.6581C58.4385 61.5195 58.7145 61.3726 58.9874 61.2185C59.2593 61.0643 59.5281 60.9029 59.7916 60.7331C60.0552 60.5643 60.3135 60.3883 60.5666 60.2049C60.8208 60.0216 61.0687 59.831 61.3124 59.6331C61.5552 59.4362 61.7927 59.232 62.0249 59.0216C62.2562 58.8112 62.4822 58.5945 62.702 58.3716C62.9218 58.1487 63.1354 57.9195 63.3416 57.6851C63.5489 57.4497 63.7499 57.2091 63.9427 56.9633C64.1364 56.7174 64.3239 56.4664 64.5031 56.2091C64.6833 55.9529 64.8552 55.6914 65.0208 55.4258C65.1854 55.1601 65.3427 54.8893 65.4937 54.6143C65.6437 54.3404 65.7854 54.0612 65.9208 53.7789C66.0552 53.4956 66.1822 53.2101 66.2999 52.9195C66.4187 52.6299 66.5302 52.3372 66.6322 52.0414C66.7343 51.7456 66.8291 51.4477 66.9145 51.1466C67.001 50.8445 67.0781 50.5414 67.1468 50.2362C67.2156 49.931 67.276 49.6237 67.3281 49.3154C67.3802 49.006 67.4239 48.6966 67.4583 48.3851C67.4927 48.0737 67.5187 47.7622 67.5364 47.4497C67.5541 47.1372 67.5624 46.8237 67.5624 46.5112C67.5624 46.1893 67.5552 45.8695 67.5364 45.5518Z" stroke="#E6E6E6" stroke-width="2" mask="url(#path-2-inside-1_17_460)"/>
</g>
<path d="M50.6653 35.7676L50.6639 35.7676C49.8804 35.7687 49.1076 35.855 48.3442 36.0254L47.6613 36.1778L48.0267 36.7745L49.2589 38.7865L46.6631 52.3192L46.6102 52.5951L46.8184 52.7838L50.3298 55.9672L50.6656 56.2716L51.0015 55.9672L54.5129 52.7838L54.721 52.5952L54.6681 52.3193L52.0733 38.7864L53.3046 36.7744L53.6698 36.1776L52.9869 36.0254C52.2225 35.855 51.4488 35.7687 50.6653 35.7676Z" stroke="#66BC46"/>
<path d="M20.3893 69.2365V75.1698H18.5768V69.2365V69.0865H18.4268H16.6685V67.6573H22.2893V69.0865H20.5393H20.3893V69.2365Z" stroke="#E6E6E6" stroke-width="0.3"/>
<path d="M28.6795 71.3491V75.17H27.4759L27.1134 74.4523L27.0718 74.37H26.9795H26.9378H26.8662L26.8212 74.4257C26.5493 74.7619 26.2819 74.9818 26.019 75.0994C25.7527 75.2153 25.3971 75.2783 24.9461 75.2783C24.4083 75.2783 24.0019 75.1183 23.7088 74.8122C23.4147 74.5041 23.2586 74.0634 23.2586 73.47C23.2586 72.865 23.4653 72.4364 23.8657 72.1552L23.8658 72.1551C24.2827 71.8618 24.8997 71.6881 25.7351 71.649L26.7463 71.6199L26.892 71.6157V71.47V71.3825C26.892 71.11 26.825 70.8779 26.6646 70.7148C26.5037 70.5512 26.2741 70.4825 26.0045 70.4825C25.5643 70.4825 25.027 70.621 24.3987 70.8857L23.9121 69.775C24.5701 69.4691 25.3936 69.3116 26.3878 69.3116C27.1409 69.3116 27.7023 69.4992 28.0912 69.8519L28.0915 69.8522C28.4786 70.2013 28.6795 70.6936 28.6795 71.3491ZM26.9003 72.6158V72.4591L26.7438 72.4659L26.2651 72.4867C25.9074 72.4998 25.6141 72.5721 25.4071 72.7242C25.1912 72.8827 25.0878 73.114 25.0878 73.395C25.0878 73.6069 25.1445 73.7928 25.2839 73.9234C25.4215 74.0523 25.6141 74.1033 25.8336 74.1033C26.1204 74.1033 26.3724 74.0109 26.5797 73.8232C26.7936 73.6326 26.9003 73.3827 26.9003 73.0866V72.6158Z" stroke="#E6E6E6" stroke-width="0.3"/>
<path d="M32.1889 75.1698H30.4014V67.1573H32.1889V75.1698Z" stroke="#E6E6E6" stroke-width="0.3"/>
<path d="M34.4674 74.5159L34.4675 74.516C34.9903 75.0182 35.7298 75.2783 36.7094 75.2783C37.1886 75.2783 37.5953 75.2453 37.9312 75.181L37.9326 75.1807L37.9326 75.1807C38.2387 75.1251 38.5361 75.0279 38.8261 74.8892V73.7133C38.5395 73.8348 38.267 73.9254 38.0089 73.983C38.0088 73.983 38.0088 73.983 38.0087 73.983L37.9761 73.8366C37.6677 73.9064 37.3302 73.9408 36.9636 73.9408C36.5604 73.9408 36.2427 73.845 36.0094 73.6533C35.8116 73.4908 35.6924 73.276 35.6524 73.0075L34.4674 74.5159ZM34.4674 74.5159C33.9463 74.0162 33.6761 73.2955 33.6761 72.3325C33.6761 71.3349 33.928 70.5938 34.4099 70.0857L34.4101 70.0855C34.8912 69.5763 35.5846 69.3116 36.5136 69.3116C37.3982 69.3116 38.0605 69.5419 38.5225 69.9826C38.9815 70.4215 39.2219 71.0626 39.2219 71.9283V72.7075L34.4674 74.5159ZM35.5307 71.5285L35.5174 71.6908H35.6802H37.4761H37.6304L37.626 71.5365C37.6169 71.2178 37.5248 70.9491 37.3367 70.7437L37.2261 70.845L37.3373 70.7443C37.1467 70.5336 36.8915 70.4325 36.5886 70.4325C36.3086 70.4325 36.0661 70.5231 35.8697 70.706L35.9719 70.8158L35.8704 70.7053C35.6657 70.8934 35.5595 71.1774 35.5307 71.5285Z" stroke="#E6E6E6" stroke-width="0.3"/>
<path d="M46.3113 71.3825V75.17H44.5238V72.02C44.5238 71.6078 44.4647 71.273 44.3293 71.0336L44.1988 71.1074L44.3297 71.0343C44.1858 70.7766 43.9471 70.6491 43.6404 70.6491C43.2387 70.6491 42.9303 70.8154 42.7428 71.1509L42.7426 71.1513C42.5663 71.4687 42.4904 71.984 42.4904 72.67V75.17H40.7029V69.4158H42.0215L42.2488 70.0653L42.284 70.1658H42.3904H42.5154H42.5989L42.6429 70.0949C42.8039 69.8354 43.0265 69.6406 43.3144 69.511C43.6086 69.3794 43.9496 69.3116 44.3404 69.3116C44.9787 69.3116 45.4566 69.4965 45.7947 69.8488L45.7948 69.849C46.1322 70.1996 46.3113 70.7035 46.3113 71.3825Z" stroke="#E6E6E6" stroke-width="0.3"/>
<path d="M51.0545 75.3491L51.0246 75.2021C50.7803 75.2517 50.4927 75.2782 50.1587 75.2782C49.4794 75.2782 49.0237 75.1112 48.7536 74.8114C48.4804 74.5067 48.3295 74.0219 48.3295 73.3282V70.8324V70.6824H48.1795H47.5962V70.0599L48.4621 69.4464L48.4967 69.4219L48.5133 69.3829L49.0161 68.2032H50.1337V69.2657V69.4157H50.2837H51.617V70.6824H50.2837H50.1337V70.8324V73.1866C50.1337 73.4041 50.186 73.5951 50.3172 73.7313C50.4495 73.8685 50.6368 73.9241 50.8503 73.9241C51.1021 73.9241 51.389 73.873 51.7087 73.7739V74.9906C51.4686 75.0875 51.2409 75.1579 51.0245 75.2021L51.0545 75.3491ZM51.0545 75.3491C51.3097 75.297 51.5774 75.2105 51.8587 75.0907L48.1795 73.3282C48.1795 74.0397 48.3337 74.5678 48.642 74.9116C48.9524 75.2563 49.4587 75.4282 50.1587 75.4282C50.5003 75.4282 50.7982 75.4011 51.0545 75.3491Z" stroke="#E6E6E6" stroke-width="0.3"/>
<path d="M55.7467 72.4806C55.604 72.3901 55.2459 72.2177 54.6868 71.9666C54.1845 71.7391 53.8168 71.5221 53.5769 71.3186C53.3395 71.1133 53.1651 70.8811 53.0499 70.6219C52.9374 70.3653 52.8793 70.0537 52.8793 69.6825C52.8793 69.0054 53.1219 68.4899 53.6041 68.1181C54.0945 67.7426 54.7793 67.545 55.6752 67.545C56.4178 67.545 57.1762 67.708 57.9531 68.0371L57.4183 69.3861C56.736 69.09 56.1318 68.9367 55.6085 68.9367C55.3239 68.9367 55.0856 68.9866 54.9214 69.1135C54.7642 69.2329 54.6752 69.3926 54.6752 69.5867C54.6752 69.7999 54.7882 69.9772 54.9712 70.1181L54.9712 70.1181L54.9722 70.1188C55.0629 70.1874 55.2206 70.2778 55.4357 70.3881C55.6538 70.5 55.9393 70.6367 56.2919 70.7981L56.2927 70.7984C56.9555 71.0975 57.3953 71.4096 57.6344 71.7268C57.8716 72.0438 57.996 72.4478 57.996 72.9492C57.996 73.4055 57.8794 73.8078 57.6497 74.1587L57.6496 74.1589C57.4225 74.5067 57.0922 74.7808 56.6512 74.979L56.6509 74.9791C56.2128 75.177 55.693 75.2784 55.0877 75.2784C54.5712 75.2784 54.1447 75.2423 53.8059 75.1732C53.4949 75.1065 53.168 74.9966 52.8252 74.8409V73.2948C53.1693 73.457 53.5247 73.5873 53.8903 73.6857L53.8912 73.6859C54.3365 73.8031 54.7495 73.8617 55.1293 73.8617C55.4538 73.8617 55.7226 73.8068 55.9063 73.6696C56.0882 73.5353 56.1877 73.3524 56.1877 73.1284C56.1877 72.9933 56.1495 72.8697 56.072 72.7617L56.0715 72.761C55.9972 72.6588 55.8844 72.5666 55.7467 72.4806ZM55.7467 72.4806C55.7469 72.4807 55.7471 72.4808 55.7472 72.4809L55.6668 72.6075L55.7462 72.4803C55.7464 72.4804 55.7466 72.4805 55.7467 72.4806Z" stroke="#E6E6E6" stroke-width="0.3"/>
<path d="M59.9051 70.0969L59.9048 70.0972L59.9048 70.0972C59.3876 70.6114 59.1198 71.3467 59.1198 72.3241C59.1198 73.2995 59.3685 74.0258 59.845 74.5247L59.9051 70.0969ZM59.9051 70.0969C60.4213 69.5806 61.1639 69.3116 62.1532 69.3116C62.7855 69.3116 63.3826 69.4398 63.9452 69.6953L63.441 70.9643C63.2379 70.8811 63.0471 70.8116 62.8687 70.7559L62.8685 70.7559M59.9051 70.0969L62.8685 70.7559M62.8685 70.7559C62.639 70.6846 62.4011 70.6491 62.1532 70.6491C61.7704 70.6491 61.4621 70.8032 61.2472 71.1086M62.8685 70.7559L62.824 70.8991C62.6094 70.8325 62.3865 70.7991 62.1532 70.7991C61.8167 70.7991 61.5553 70.9314 61.3698 71.195C61.1834 71.4595 61.0907 71.8314 61.0907 72.3116C61.0907 73.2814 61.449 73.7658 62.1657 73.7658C62.7248 73.7658 63.2623 73.6187 63.7782 73.323V73.4948M63.7782 73.4948C63.2638 73.7749 62.7257 73.9158 62.1657 73.9158C61.77 73.9158 61.4518 73.7796 61.2388 73.4916C61.0321 73.212 60.9407 72.8106 60.9407 72.3116C60.9407 71.8148 61.0362 71.4081 61.2472 71.1086M63.7782 73.4948C63.8284 73.4675 63.8784 73.4388 63.9282 73.4088L59.845 74.5247C60.3184 75.0193 61.0254 75.2783 61.9907 75.2783C62.6897 75.2783 63.2834 75.1199 63.7782 74.8093M63.7782 73.4948V74.8093M61.2472 71.1086L61.3698 71.1949L61.2472 71.1085C61.2472 71.1086 61.2472 71.1086 61.2472 71.1086ZM63.7782 74.8093C63.8006 74.7952 63.8228 74.7808 63.8449 74.7661L63.9282 74.8908H63.7782V74.8093Z" stroke="#E6E6E6" stroke-width="0.3"/>
<path d="M70.0021 74.4952L70.0021 74.4952C69.5059 75.0119 68.8053 75.2783 67.877 75.2783C66.9905 75.2783 66.3 75.0066 65.7894 74.4745C65.2805 73.9419 65.0187 73.2157 65.0187 72.2783C65.0187 71.3201 65.2773 70.5966 65.7758 70.0874L65.776 70.0872C66.2743 69.5763 66.9783 69.3116 67.9103 69.3116C68.482 69.3116 68.9814 69.4338 69.4126 69.672C69.8415 69.9105 70.172 70.2514 70.4067 70.6981L70.4067 70.6981C70.6404 71.1427 70.7603 71.6679 70.7603 72.2783C70.7603 73.2428 70.5015 73.9753 70.0021 74.4952ZM66.8395 72.2783C66.8395 72.8097 66.9086 73.2346 67.0641 73.5379C67.1446 73.6966 67.2564 73.8217 67.4012 73.9061C67.5453 73.99 67.713 74.0283 67.8978 74.0283C68.0812 74.0283 68.2476 73.99 68.39 73.9055C68.533 73.8206 68.6424 73.6949 68.72 73.5359C68.8683 73.2336 68.9353 72.8097 68.9353 72.2783C68.9353 71.7532 68.8663 71.3363 68.7147 71.0433C68.6363 70.8886 68.5259 70.7667 68.3825 70.6847C68.2398 70.603 68.0732 70.5658 67.8895 70.5658C67.7076 70.5658 67.5427 70.6029 67.4005 70.6835C67.2577 70.7645 67.1465 70.8846 67.0655 71.0368C66.9085 71.3309 66.8395 71.7512 66.8395 72.2783Z" stroke="#E6E6E6" stroke-width="0.3"/>
<path d="M72.2456 73.2115V69.4156H74.0331V72.574C74.0331 72.9781 74.0888 73.3072 74.2184 73.5422L74.2188 73.543C74.362 73.7992 74.6002 73.924 74.9039 73.924C75.1025 73.924 75.2819 73.8852 75.4363 73.8005C75.5916 73.7154 75.7133 73.5882 75.8022 73.425C75.9768 73.1062 76.0539 72.594 76.0539 71.9156V69.4156H77.8414V75.1698H76.523L76.2956 74.5163L76.2605 74.4156H76.1539H76.0331H75.9502L75.9061 74.4857C75.7473 74.7382 75.5249 74.9332 75.2354 75.0718C74.9478 75.2074 74.6049 75.2781 74.2039 75.2781C73.5673 75.2781 73.092 75.0951 72.7584 74.7455C72.4226 74.3928 72.2456 73.8885 72.2456 73.2115Z" stroke="#E6E6E6" stroke-width="0.3"/>
<path d="M82.6055 75.3491L82.5756 75.2021C82.3313 75.2517 82.0437 75.2782 81.7096 75.2782C81.0304 75.2782 80.5746 75.1112 80.3046 74.8114C80.0314 74.5067 79.8805 74.0219 79.8805 73.3282V70.8324V70.6824H79.7305H79.1471V70.0599L80.013 69.4464L80.0476 69.4219L80.0643 69.3829L80.5671 68.2032H81.6846V69.2657V69.4157H81.8346H83.168V70.6824H81.8346H81.6846V70.8324V73.1866C81.6846 73.4041 81.7369 73.5951 81.8682 73.7313C82.0004 73.8685 82.1877 73.9241 82.4013 73.9241C82.653 73.9241 82.9399 73.873 83.2596 73.7739V74.9906C83.0196 75.0875 82.7918 75.1579 82.5755 75.2021L82.6055 75.3491ZM82.6055 75.3491C82.8607 75.297 83.1284 75.2105 83.4096 75.0907L79.7305 73.3282C79.7305 74.0397 79.8846 74.5678 80.193 74.9116C80.5034 75.2563 81.0096 75.4282 81.7096 75.4282C82.0513 75.4282 82.3492 75.4011 82.6055 75.3491Z" stroke="#E6E6E6" stroke-width="0.3"/>
</svg>
